<svg width="195" height="36" viewBox="0 0 195 36" fill="none" xmlns="http://www.w3.org/2000/svg">
<path d="M68.3652 15.9004V9.86646H69.4218V12.3488H72.2988V9.86646H73.3553V15.9004H72.2988V13.2462H69.4218V15.9004H68.3652Z" fill="#333333"/>
<path d="M74.9141 15.9004V9.86646H78.9622V10.7384H75.9706V12.3742H78.7012V13.2208H75.9706V15.0284H78.9622V15.9004H74.9141Z" fill="#333333"/>
<path d="M82.6718 16.1537V15.5618C82.2326 15.5618 81.8316 15.4982 81.4816 15.3709C81.1315 15.2436 80.8323 15.0653 80.5841 14.8298C80.3422 14.5943 80.1513 14.3143 80.0176 13.9833C79.884 13.6523 79.8203 13.2895 79.8203 12.8885V12.7167C79.8203 12.3539 79.884 12.0229 80.0176 11.7174C80.1513 11.4119 80.3359 11.1509 80.5841 10.9218C80.826 10.699 81.1251 10.5208 81.4816 10.3935C81.838 10.2662 82.2326 10.2025 82.6718 10.2025V9.6106H83.7157V10.2025C84.1548 10.2025 84.5558 10.2662 84.9059 10.3935C85.256 10.5208 85.5615 10.6926 85.8033 10.9218C86.0516 11.1446 86.2362 11.4119 86.3698 11.7174C86.5035 12.0229 86.5608 12.3539 86.5608 12.7167V12.8885C86.5608 13.2895 86.4971 13.6587 86.3698 13.9833C86.2425 14.3143 86.0516 14.5943 85.8033 14.8298C85.5551 15.0653 85.256 15.2499 84.9059 15.3709C84.5558 15.4918 84.1548 15.5618 83.7157 15.5618V16.1537H82.6718ZM82.6718 14.6453V11.1127C82.3917 11.1127 82.1435 11.1509 81.9271 11.2273C81.7107 11.3037 81.5325 11.4119 81.3797 11.5519C81.227 11.6919 81.1188 11.8638 81.0424 12.0547C80.966 12.2457 80.9278 12.4685 80.9278 12.7103V12.8822C80.9278 13.1622 80.966 13.4168 81.0424 13.6332C81.1188 13.856 81.227 14.0406 81.3734 14.187C81.5197 14.3397 81.7043 14.4479 81.9207 14.5307C82.1371 14.6134 82.3917 14.6453 82.6718 14.6453ZM83.7157 14.6453C83.9957 14.6453 84.2439 14.6071 84.4667 14.5307C84.6895 14.4543 84.8677 14.3397 85.0141 14.187C85.1605 14.0406 85.2751 13.856 85.3514 13.6332C85.4278 13.4105 85.466 13.1622 85.466 12.8822V12.7103C85.466 12.4685 85.4278 12.252 85.3514 12.0547C85.2751 11.8574 85.1605 11.6919 85.0077 11.5519C84.8613 11.4119 84.6768 11.3037 84.4603 11.2273C84.2439 11.1509 83.9957 11.1127 83.7157 11.1127V14.6453Z" fill="#333333"/>
<path d="M89.045 15.9004V10.7639H87.0273V9.86646H92.1129V10.7639H90.0952V15.9004H89.045Z" fill="#333333"/>
<path d="M93.0527 15.9004V9.86646H97.1008V10.7384H94.1093V12.3742H96.8399V13.2208H94.1093V15.0284H97.1008V15.9004H93.0527Z" fill="#333333"/>
<path d="M98.3555 15.9004V9.86646H102.232V10.7639H99.412V15.9004H98.3555Z" fill="#333333"/>
<path d="M101.734 15.9004L104 9.86646H105.063L107.335 15.9004H106.196L105.681 14.5129H103.3L102.785 15.9004H101.734ZM103.631 13.6536H105.356L104.497 11.1904L103.637 13.6536H103.631Z" fill="#333333"/>
<path d="M110.106 15.9957C109.73 15.9957 109.399 15.9511 109.106 15.8556C108.814 15.7665 108.565 15.6329 108.368 15.4674C108.164 15.3019 108.012 15.0982 107.891 14.8691C107.776 14.6336 107.712 14.379 107.693 14.0862H108.763C108.788 14.2389 108.833 14.379 108.896 14.5063C108.96 14.6336 109.049 14.7418 109.164 14.8309C109.278 14.92 109.412 14.99 109.565 15.0345C109.717 15.0791 109.902 15.1046 110.106 15.1046C110.577 15.1046 110.914 15.0218 111.124 14.8563C111.334 14.6908 111.436 14.4617 111.436 14.1689C111.436 14.0289 111.41 13.8952 111.366 13.7743C111.321 13.6534 111.245 13.5579 111.137 13.4688C111.029 13.3797 110.889 13.316 110.717 13.2651C110.545 13.2142 110.335 13.1887 110.099 13.1887H109.367V12.3995H110.099C110.488 12.3995 110.774 12.3104 110.952 12.1385C111.13 11.9667 111.22 11.7566 111.22 11.5084C111.22 11.2602 111.13 11.0565 110.946 10.8973C110.768 10.7382 110.481 10.6555 110.099 10.6555C109.896 10.6555 109.724 10.6746 109.577 10.7191C109.431 10.7573 109.31 10.8146 109.208 10.891C109.113 10.9674 109.036 11.0565 108.985 11.171C108.935 11.2856 108.896 11.4065 108.884 11.5466H107.814C107.833 11.2792 107.891 11.031 107.993 10.8082C108.094 10.5855 108.241 10.4009 108.425 10.2481C108.61 10.0954 108.845 9.9808 109.125 9.89806C109.406 9.81531 109.73 9.77075 110.093 9.77075C110.825 9.77075 111.379 9.92351 111.741 10.229C112.104 10.5345 112.289 10.9483 112.289 11.4702C112.289 11.7884 112.2 12.0558 112.028 12.2785C111.856 12.5013 111.621 12.6604 111.328 12.7559C111.691 12.845 111.977 13.0041 112.187 13.2524C112.397 13.4942 112.505 13.8188 112.505 14.2135C112.505 14.4744 112.454 14.7099 112.352 14.9263C112.251 15.1427 112.098 15.3337 111.894 15.4928C111.691 15.6519 111.442 15.7729 111.143 15.862C110.844 15.9511 110.494 15.9957 110.099 15.9957H110.106Z" fill="#333333"/>
<path d="M115.921 15.9957C115.558 15.9957 115.221 15.9384 114.903 15.8238C114.585 15.7092 114.304 15.5246 114.069 15.2764C113.833 15.0282 113.643 14.7099 113.503 14.3217C113.362 13.9334 113.299 13.4688 113.299 12.9278V12.7559C113.299 12.234 113.369 11.7884 113.509 11.4129C113.649 11.0374 113.84 10.7319 114.082 10.49C114.324 10.2481 114.604 10.0699 114.922 9.94898C115.24 9.83441 115.577 9.77075 115.928 9.77075C116.278 9.77075 116.57 9.81531 116.85 9.89806C117.137 9.9808 117.385 10.1081 117.602 10.2736C117.818 10.4391 117.99 10.6491 118.13 10.8973C118.263 11.1456 118.346 11.432 118.384 11.7693H117.271C117.201 11.3938 117.048 11.1201 116.812 10.9483C116.577 10.7764 116.284 10.6873 115.928 10.6873C115.724 10.6873 115.533 10.7255 115.355 10.8019C115.176 10.8783 115.011 10.9928 114.871 11.1519C114.731 11.3111 114.616 11.5275 114.534 11.7884C114.451 12.0558 114.406 12.374 114.406 12.7559V12.9278C114.406 13.3287 114.451 13.6661 114.54 13.9398C114.629 14.2135 114.744 14.4362 114.89 14.6017C115.03 14.7736 115.196 14.8945 115.38 14.9709C115.565 15.0473 115.743 15.0855 115.921 15.0855C116.316 15.0855 116.628 14.99 116.857 14.799C117.086 14.6081 117.22 14.3471 117.264 14.0098H118.378C118.34 14.3662 118.251 14.6717 118.111 14.92C117.971 15.1682 117.792 15.3719 117.576 15.5374C117.36 15.6965 117.105 15.8174 116.825 15.8874C116.545 15.9638 116.239 16.002 115.921 16.002V15.9957Z" fill="#333333"/>
<path d="M120.793 15.9004V10.7639H118.775V9.86646H123.861V10.7639H121.843V15.9004H120.793Z" fill="#333333"/>
<path d="M124.803 15.9004V9.86646H126.999C127.4 9.86646 127.75 9.91101 128.049 10.0065C128.348 10.0956 128.596 10.2293 128.787 10.4011C128.984 10.573 129.125 10.7703 129.22 11.0058C129.315 11.2413 129.36 11.5022 129.36 11.7887C129.36 12.0751 129.315 12.336 129.22 12.5715C129.125 12.807 128.978 13.0107 128.787 13.1762C128.59 13.3417 128.342 13.4754 128.049 13.5708C127.75 13.6599 127.4 13.7109 126.999 13.7109H125.859V15.9004H124.803ZM125.859 12.8134H126.91C127.425 12.8134 127.788 12.7243 127.998 12.5397C128.208 12.3551 128.31 12.1069 128.31 11.7823C128.31 11.4577 128.208 11.2095 127.998 11.0312C127.788 10.853 127.431 10.7575 126.91 10.7575H125.859V12.807V12.8134Z" fill="#333333"/>
<path d="M132.955 15.9957C132.592 15.9957 132.249 15.9384 131.911 15.8174C131.58 15.7029 131.288 15.5183 131.033 15.27C130.778 15.0218 130.575 14.7099 130.428 14.3217C130.282 13.9334 130.199 13.4688 130.199 12.9278V12.7559C130.199 12.234 130.276 11.7884 130.428 11.4129C130.581 11.0374 130.785 10.7319 131.033 10.4836C131.288 10.2418 131.58 10.0572 131.911 9.94261C132.242 9.82804 132.592 9.77075 132.955 9.77075C133.318 9.77075 133.662 9.82804 133.999 9.94261C134.33 10.0572 134.623 10.2354 134.877 10.4836C135.132 10.7255 135.336 11.0374 135.482 11.4129C135.628 11.7884 135.711 12.234 135.711 12.7559V12.9278C135.711 13.4751 135.635 13.9398 135.482 14.3217C135.329 14.7036 135.126 15.0218 134.877 15.27C134.623 15.5183 134.33 15.7029 133.999 15.8174C133.668 15.932 133.318 15.9957 132.955 15.9957ZM132.955 15.0855C133.165 15.0855 133.375 15.0473 133.573 14.9709C133.776 14.8945 133.948 14.7736 134.101 14.6017C134.254 14.4299 134.368 14.2071 134.464 13.9334C134.553 13.6597 134.604 13.3224 134.604 12.9278V12.7559C134.604 12.3804 134.559 12.0558 134.464 11.7948C134.375 11.5338 134.254 11.3174 134.101 11.1583C133.955 10.9928 133.776 10.8783 133.573 10.8019C133.369 10.7255 133.165 10.6873 132.955 10.6873C132.745 10.6873 132.535 10.7255 132.338 10.8019C132.134 10.8783 131.962 10.9928 131.81 11.1583C131.657 11.3238 131.542 11.5338 131.447 11.7948C131.358 12.0558 131.307 12.374 131.307 12.7559V12.9278C131.307 13.3224 131.351 13.6597 131.447 13.9334C131.536 14.2071 131.657 14.4299 131.81 14.6017C131.962 14.7736 132.134 14.8945 132.338 14.9709C132.542 15.0473 132.745 15.0855 132.955 15.0855Z" fill="#333333"/>
<path d="M136.959 15.8995V9.86557H138.016V14.2319L140.937 9.86557H141.955V15.8995H140.899V11.5332L137.977 15.8995H136.959ZM139.46 9.46458C139.193 9.46458 138.964 9.43912 138.773 9.37547C138.576 9.31819 138.417 9.23545 138.289 9.12088C138.162 9.00631 138.066 8.86628 138.003 8.70079C137.939 8.52894 137.907 8.33799 137.907 8.12158H138.83C138.83 8.37618 138.881 8.55439 138.989 8.65623C139.098 8.75807 139.25 8.80899 139.46 8.80899C139.677 8.80899 139.842 8.75807 139.944 8.65623C140.046 8.55439 140.097 8.37618 140.097 8.12158H141.007C141.007 8.33799 140.975 8.5353 140.912 8.70079C140.848 8.86628 140.752 9.01268 140.625 9.12088C140.498 9.23545 140.339 9.31819 140.141 9.37547C139.944 9.43276 139.715 9.46458 139.454 9.46458H139.46Z" fill="#333333"/>
<path d="M143.51 15.9004V9.86646H148.423V15.9004H147.367V10.7639H144.573V15.9004H143.516H143.51Z" fill="#333333"/>
<path d="M149.967 15.9004V9.86646H152.163C152.564 9.86646 152.914 9.91101 153.213 10.0065C153.512 10.0956 153.76 10.2293 153.951 10.4011C154.149 10.573 154.289 10.7703 154.384 11.0058C154.48 11.2413 154.524 11.5022 154.524 11.7887C154.524 12.0751 154.48 12.336 154.384 12.5715C154.289 12.807 154.142 13.0107 153.951 13.1762C153.754 13.3417 153.506 13.4754 153.213 13.5708C152.914 13.6599 152.564 13.7109 152.163 13.7109H151.023V15.9004H149.967ZM151.023 12.8134H152.074C152.589 12.8134 152.952 12.7243 153.162 12.5397C153.372 12.3551 153.474 12.1069 153.474 11.7823C153.474 11.4577 153.372 11.2095 153.162 11.0312C152.952 10.853 152.596 10.7575 152.074 10.7575H151.023V12.807V12.8134Z" fill="#333333"/>
<path d="M158.123 15.9957C157.76 15.9957 157.417 15.9384 157.079 15.8174C156.748 15.7029 156.456 15.5183 156.201 15.27C155.946 15.0218 155.743 14.7099 155.596 14.3217C155.45 13.9334 155.367 13.4688 155.367 12.9278V12.7559C155.367 12.234 155.444 11.7884 155.596 11.4129C155.749 11.0374 155.953 10.7319 156.201 10.4836C156.456 10.2418 156.748 10.0572 157.079 9.94261C157.41 9.82804 157.76 9.77075 158.123 9.77075C158.486 9.77075 158.83 9.82804 159.167 9.94261C159.498 10.0572 159.791 10.2354 160.045 10.4836C160.3 10.7255 160.504 11.0374 160.65 11.4129C160.796 11.7884 160.879 12.234 160.879 12.7559V12.9278C160.879 13.4751 160.803 13.9398 160.65 14.3217C160.497 14.7036 160.294 15.0218 160.045 15.27C159.791 15.5183 159.498 15.7029 159.167 15.8174C158.836 15.932 158.486 15.9957 158.123 15.9957ZM158.123 15.0855C158.333 15.0855 158.543 15.0473 158.741 14.9709C158.944 14.8945 159.116 14.7736 159.269 14.6017C159.422 14.4299 159.536 14.2071 159.632 13.9334C159.721 13.6597 159.772 13.3224 159.772 12.9278V12.7559C159.772 12.3804 159.727 12.0558 159.632 11.7948C159.543 11.5338 159.422 11.3174 159.269 11.1583C159.122 10.9928 158.944 10.8783 158.741 10.8019C158.537 10.7255 158.333 10.6873 158.123 10.6873C157.913 10.6873 157.703 10.7255 157.506 10.8019C157.302 10.8783 157.13 10.9928 156.978 11.1583C156.825 11.3238 156.71 11.5338 156.615 11.7948C156.526 12.0558 156.475 12.374 156.475 12.7559V12.9278C156.475 13.3224 156.519 13.6597 156.615 13.9334C156.704 14.2071 156.825 14.4299 156.978 14.6017C157.13 14.7736 157.302 14.8945 157.506 14.9709C157.709 15.0473 157.913 15.0855 158.123 15.0855Z" fill="#333333"/>
<path d="M164.635 16.1537V15.5618C164.196 15.5618 163.795 15.4982 163.444 15.3709C163.094 15.2436 162.795 15.0653 162.547 14.8298C162.305 14.5943 162.114 14.3143 161.981 13.9833C161.847 13.6523 161.783 13.2895 161.783 12.8885V12.7167C161.783 12.3539 161.847 12.0229 161.981 11.7174C162.114 11.4119 162.299 11.1509 162.547 10.9218C162.789 10.699 163.088 10.5208 163.444 10.3935C163.801 10.2662 164.196 10.2025 164.635 10.2025V9.6106H165.679V10.2025C166.118 10.2025 166.519 10.2662 166.869 10.3935C167.219 10.5208 167.524 10.6926 167.766 10.9218C168.014 11.1446 168.199 11.4119 168.333 11.7174C168.466 12.0229 168.524 12.3539 168.524 12.7167V12.8885C168.524 13.2895 168.46 13.6587 168.333 13.9833C168.205 14.3143 168.014 14.5943 167.766 14.8298C167.518 15.0653 167.219 15.2499 166.869 15.3709C166.519 15.4918 166.118 15.5618 165.679 15.5618V16.1537H164.635ZM164.635 14.6453V11.1127C164.355 11.1127 164.106 11.1509 163.89 11.2273C163.674 11.3037 163.495 11.4119 163.343 11.5519C163.19 11.6919 163.082 11.8638 163.005 12.0547C162.929 12.2457 162.891 12.4685 162.891 12.7103V12.8822C162.891 13.1622 162.929 13.4168 163.005 13.6332C163.082 13.856 163.19 14.0406 163.336 14.187C163.483 14.3397 163.667 14.4479 163.884 14.5307C164.1 14.6134 164.355 14.6453 164.635 14.6453ZM165.679 14.6453C165.959 14.6453 166.207 14.6071 166.43 14.5307C166.652 14.4543 166.831 14.3397 166.977 14.187C167.123 14.0406 167.238 13.856 167.314 13.6332C167.391 13.4105 167.429 13.1622 167.429 12.8822V12.7103C167.429 12.4685 167.391 12.252 167.314 12.0547C167.238 11.8574 167.123 11.6919 166.971 11.5519C166.824 11.4119 166.64 11.3037 166.423 11.2273C166.207 11.1509 165.959 11.1127 165.679 11.1127V14.6453Z" fill="#333333"/>
<path d="M172.062 15.9957C171.699 15.9957 171.362 15.9384 171.043 15.8238C170.725 15.7092 170.445 15.5246 170.21 15.2764C169.974 15.0282 169.783 14.7099 169.643 14.3217C169.503 13.9334 169.439 13.4688 169.439 12.9278V12.7559C169.439 12.234 169.509 11.7884 169.649 11.4129C169.79 11.0374 169.98 10.7319 170.222 10.49C170.464 10.2481 170.744 10.0699 171.063 9.94898C171.381 9.83441 171.718 9.77075 172.068 9.77075C172.418 9.77075 172.711 9.81531 172.991 9.89806C173.277 9.9808 173.526 10.1081 173.742 10.2736C173.959 10.4391 174.13 10.6491 174.27 10.8973C174.404 11.1456 174.487 11.432 174.525 11.7693H173.411C173.341 11.3938 173.188 11.1201 172.953 10.9483C172.717 10.7764 172.425 10.6873 172.068 10.6873C171.864 10.6873 171.674 10.7255 171.495 10.8019C171.317 10.8783 171.152 10.9928 171.012 11.1519C170.872 11.3111 170.757 11.5275 170.674 11.7884C170.592 12.0558 170.547 12.374 170.547 12.7559V12.9278C170.547 13.3287 170.592 13.6661 170.681 13.9398C170.77 14.2135 170.884 14.4362 171.031 14.6017C171.171 14.7736 171.336 14.8945 171.521 14.9709C171.705 15.0473 171.884 15.0855 172.062 15.0855C172.456 15.0855 172.768 14.99 172.997 14.799C173.227 14.6081 173.36 14.3471 173.405 14.0098H174.519C174.48 14.3662 174.391 14.6717 174.251 14.92C174.111 15.1682 173.933 15.3719 173.717 15.5374C173.5 15.6965 173.246 15.8174 172.966 15.8874C172.686 15.9638 172.38 16.002 172.062 16.002V15.9957Z" fill="#333333"/>
<path d="M178.133 15.9957C177.77 15.9957 177.426 15.9384 177.089 15.8174C176.758 15.7029 176.465 15.5183 176.211 15.27C175.956 15.0218 175.752 14.7099 175.606 14.3217C175.46 13.9334 175.377 13.4688 175.377 12.9278V12.7559C175.377 12.234 175.453 11.7884 175.606 11.4129C175.759 11.0374 175.963 10.7319 176.211 10.4836C176.465 10.2418 176.758 10.0572 177.089 9.94261C177.42 9.82804 177.77 9.77075 178.133 9.77075C178.496 9.77075 178.839 9.82804 179.177 9.94261C179.508 10.0572 179.801 10.2354 180.055 10.4836C180.31 10.7255 180.513 11.0374 180.66 11.4129C180.806 11.7884 180.889 12.234 180.889 12.7559V12.9278C180.889 13.4751 180.813 13.9398 180.66 14.3217C180.507 14.7036 180.303 15.0218 180.055 15.27C179.801 15.5183 179.508 15.7029 179.177 15.8174C178.846 15.932 178.496 15.9957 178.133 15.9957ZM178.133 15.0855C178.343 15.0855 178.553 15.0473 178.75 14.9709C178.954 14.8945 179.126 14.7736 179.279 14.6017C179.431 14.4299 179.546 14.2071 179.641 13.9334C179.731 13.6597 179.781 13.3224 179.781 12.9278V12.7559C179.781 12.3804 179.737 12.0558 179.641 11.7948C179.552 11.5338 179.431 11.3174 179.279 11.1583C179.132 10.9928 178.954 10.8783 178.75 10.8019C178.547 10.7255 178.343 10.6873 178.133 10.6873C177.923 10.6873 177.713 10.7255 177.516 10.8019C177.312 10.8783 177.14 10.9928 176.987 11.1583C176.835 11.3238 176.72 11.5338 176.624 11.7948C176.535 12.0558 176.484 12.374 176.484 12.7559V12.9278C176.484 13.3224 176.529 13.6597 176.624 13.9334C176.714 14.2071 176.835 14.4299 176.987 14.6017C177.14 14.7736 177.312 14.8945 177.516 14.9709C177.719 15.0473 177.923 15.0855 178.133 15.0855Z" fill="#333333"/>
<path d="M186.639 15.9957C186.308 15.9957 185.996 15.9447 185.703 15.8429C185.41 15.7411 185.156 15.5819 184.933 15.3528C184.71 15.13 184.532 14.8436 184.392 14.4935C184.252 14.1435 184.169 13.7297 184.144 13.2396H183.195V15.8938H182.139V9.85986H183.195V12.3422H184.163C184.195 11.8903 184.277 11.502 184.417 11.1774C184.557 10.8528 184.736 10.5855 184.958 10.3754C185.175 10.1654 185.429 10.0126 185.716 9.91715C186.002 9.82168 186.308 9.77075 186.639 9.77075C186.989 9.77075 187.32 9.82804 187.625 9.93625C187.931 10.0508 188.198 10.2227 188.434 10.4645C188.663 10.7064 188.847 11.0119 188.981 11.3874C189.115 11.763 189.185 12.2149 189.185 12.7432V12.915C189.185 13.4688 189.115 13.9334 188.981 14.3217C188.847 14.7036 188.663 15.0218 188.434 15.2764C188.204 15.531 187.937 15.7092 187.625 15.8174C187.32 15.932 186.989 15.9829 186.639 15.9829V15.9957ZM186.639 15.0855C186.836 15.0855 187.021 15.0473 187.192 14.9709C187.364 14.8945 187.517 14.7736 187.644 14.6017C187.772 14.4299 187.88 14.2071 187.956 13.9334C188.033 13.6597 188.071 13.3224 188.071 12.9278V12.7559C188.071 12.3804 188.033 12.0558 187.956 11.7948C187.88 11.5338 187.778 11.3174 187.644 11.1583C187.511 10.9992 187.364 10.8783 187.192 10.8019C187.021 10.7255 186.836 10.6873 186.639 10.6873C186.441 10.6873 186.257 10.7255 186.085 10.8019C185.907 10.8783 185.76 10.9928 185.627 11.1583C185.493 11.3238 185.391 11.5338 185.315 11.7948C185.238 12.0558 185.2 12.374 185.2 12.7559V12.9278C185.2 13.3224 185.238 13.6597 185.315 13.9334C185.391 14.2071 185.493 14.4299 185.627 14.6017C185.76 14.7736 185.907 14.8945 186.085 14.9709C186.263 15.0473 186.448 15.0855 186.639 15.0855Z" fill="#333333"/>
<path d="M192.461 15.9957C192.086 15.9957 191.755 15.9511 191.462 15.8556C191.169 15.7665 190.921 15.6329 190.724 15.4674C190.52 15.3019 190.367 15.0982 190.246 14.8691C190.132 14.6336 190.068 14.379 190.049 14.0862H191.118C191.144 14.2389 191.188 14.379 191.252 14.5063C191.315 14.6336 191.405 14.7418 191.519 14.8309C191.634 14.92 191.767 14.99 191.92 15.0345C192.073 15.0791 192.257 15.1046 192.461 15.1046C192.932 15.1046 193.269 15.0218 193.48 14.8563C193.69 14.6908 193.791 14.4617 193.791 14.1689C193.791 14.0289 193.766 13.8952 193.721 13.7743C193.677 13.6534 193.6 13.5579 193.492 13.4688C193.384 13.3797 193.244 13.316 193.072 13.2651C192.9 13.2142 192.69 13.1887 192.455 13.1887H191.723V12.3995H192.455C192.843 12.3995 193.129 12.3104 193.308 12.1385C193.486 11.9667 193.575 11.7566 193.575 11.5084C193.575 11.2602 193.486 11.0565 193.301 10.8973C193.123 10.7382 192.837 10.6555 192.455 10.6555C192.251 10.6555 192.079 10.6746 191.933 10.7191C191.786 10.7573 191.666 10.8146 191.564 10.891C191.468 10.9674 191.392 11.0565 191.341 11.171C191.29 11.2856 191.252 11.4065 191.239 11.5466H190.17C190.189 11.2792 190.246 11.031 190.348 10.8082C190.45 10.5855 190.596 10.4009 190.781 10.2481C190.965 10.0954 191.201 9.9808 191.481 9.89806C191.761 9.81531 192.086 9.77075 192.448 9.77075C193.18 9.77075 193.734 9.92351 194.097 10.229C194.46 10.5345 194.644 10.9483 194.644 11.4702C194.644 11.7884 194.555 12.0558 194.383 12.2785C194.211 12.5013 193.976 12.6604 193.683 12.7559C194.046 12.845 194.332 13.0041 194.542 13.2524C194.753 13.4942 194.861 13.8188 194.861 14.2135C194.861 14.4744 194.81 14.7099 194.708 14.9263C194.606 15.1427 194.453 15.3337 194.25 15.4928C194.046 15.6519 193.798 15.7729 193.499 15.862C193.199 15.9511 192.849 15.9957 192.455 15.9957H192.461Z" fill="#333333"/>
<path d="M68.3652 26.2366V20.2026H70.5611C70.9621 20.2026 71.3122 20.2472 71.6113 20.3427C71.9105 20.4318 72.1587 20.5654 72.3497 20.7373C72.547 20.9092 72.687 21.1065 72.7825 21.342C72.878 21.5775 72.9225 21.8384 72.9225 22.1248C72.9225 22.4113 72.878 22.6722 72.7825 22.9077C72.687 23.1432 72.5406 23.3469 72.3497 23.5124C72.1524 23.6779 71.9041 23.8116 71.6113 23.907C71.3122 23.9961 70.9621 24.0471 70.5611 24.0471H69.4218V26.2366H68.3652ZM69.4218 23.1496H70.472C70.9876 23.1496 71.3504 23.0605 71.5604 22.8759C71.7705 22.6913 71.8723 22.4431 71.8723 22.1185C71.8723 21.7939 71.7705 21.5456 71.5604 21.3674C71.3504 21.1892 70.9939 21.0937 70.472 21.0937H69.4218V23.1432V23.1496Z" fill="#333333"/>
<path d="M76.5158 26.3318C76.153 26.3318 75.8093 26.2745 75.4719 26.1536C75.141 26.039 74.8482 25.8545 74.5936 25.6062C74.339 25.358 74.1353 25.0461 73.9889 24.6578C73.8425 24.2696 73.7598 23.805 73.7598 23.2639V23.0921C73.7598 22.5702 73.8361 22.1246 73.9889 21.7491C74.1417 21.3736 74.3453 21.068 74.5936 20.8198C74.8482 20.5779 75.141 20.3934 75.4719 20.2788C75.8029 20.1642 76.153 20.1069 76.5158 20.1069C76.8786 20.1069 77.2223 20.1642 77.5596 20.2788C77.8906 20.3934 78.1834 20.5716 78.438 20.8198C78.6926 21.0617 78.8963 21.3736 79.0427 21.7491C79.189 22.1246 79.2718 22.5702 79.2718 23.0921V23.2639C79.2718 23.8113 79.1954 24.276 79.0427 24.6578C78.8899 25.0397 78.6862 25.358 78.438 25.6062C78.1834 25.8545 77.8906 26.039 77.5596 26.1536C77.2286 26.2682 76.8786 26.3318 76.5158 26.3318ZM76.5158 25.4216C76.7258 25.4216 76.9359 25.3835 77.1332 25.3071C77.3369 25.2307 77.5087 25.1098 77.6615 24.9379C77.8142 24.7661 77.9288 24.5433 78.0243 24.2696C78.1134 23.9959 78.1643 23.6586 78.1643 23.2639V23.0921C78.1643 22.7166 78.1197 22.3919 78.0243 22.131C77.9352 21.87 77.8142 21.6536 77.6615 21.4945C77.5151 21.329 77.3369 21.2144 77.1332 21.138C76.9295 21.0617 76.7258 21.0235 76.5158 21.0235C76.3057 21.0235 76.0957 21.0617 75.8984 21.138C75.6947 21.2144 75.5229 21.329 75.3701 21.4945C75.2173 21.66 75.1028 21.87 75.0073 22.131C74.9182 22.3919 74.8673 22.7102 74.8673 23.0921V23.2639C74.8673 23.6586 74.9118 23.9959 75.0073 24.2696C75.0964 24.5433 75.2173 24.7661 75.3701 24.9379C75.5229 25.1098 75.6947 25.2307 75.8984 25.3071C76.1021 25.3835 76.3057 25.4216 76.5158 25.4216Z" fill="#333333"/>
<path d="M82.845 26.3318C82.4822 26.3318 82.1449 26.2745 81.8266 26.16C81.5084 26.0454 81.2283 25.8608 80.9928 25.6126C80.7573 25.3644 80.5664 25.0461 80.4263 24.6578C80.2863 24.2696 80.2227 23.805 80.2227 23.2639V23.0921C80.2227 22.5702 80.2927 22.1246 80.4327 21.7491C80.5727 21.3736 80.7637 21.068 81.0055 20.8262C81.2474 20.5843 81.5275 20.4061 81.8457 20.2852C82.164 20.1706 82.5013 20.1069 82.8514 20.1069C83.2014 20.1069 83.4942 20.1515 83.7743 20.2342C84.0607 20.317 84.3089 20.4443 84.5253 20.6098C84.7417 20.7753 84.9136 20.9853 85.0536 21.2335C85.1873 21.4818 85.27 21.7682 85.3082 22.1055H84.1944C84.1244 21.73 83.9716 21.4563 83.7361 21.2844C83.5006 21.1126 83.2078 21.0235 82.8514 21.0235C82.6477 21.0235 82.4567 21.0617 82.2785 21.138C82.1003 21.2144 81.9348 21.329 81.7948 21.4881C81.6548 21.6472 81.5402 21.8637 81.4575 22.1246C81.3747 22.3919 81.3302 22.7102 81.3302 23.0921V23.2639C81.3302 23.6649 81.3747 24.0023 81.4638 24.276C81.5529 24.5497 81.6675 24.7724 81.8139 24.9379C81.9539 25.1098 82.1194 25.2307 82.304 25.3071C82.4886 25.3835 82.6668 25.4216 82.845 25.4216C83.2396 25.4216 83.5515 25.3262 83.7806 25.1352C84.0098 24.9443 84.1434 24.6833 84.188 24.346H85.3019C85.2637 24.7024 85.1746 25.0079 85.0345 25.2562C84.8945 25.5044 84.7163 25.7081 84.4999 25.8736C84.2835 26.0327 84.0289 26.1536 83.7488 26.2236C83.4688 26.3 83.1632 26.3382 82.845 26.3382V26.3318Z" fill="#333333"/>
<path d="M88.7884 26.3318C88.4256 26.3318 88.0882 26.2745 87.77 26.16C87.4517 26.0454 87.1717 25.8608 86.9362 25.6126C86.7007 25.3644 86.5097 25.0461 86.3697 24.6578C86.2297 24.2696 86.166 23.805 86.166 23.2639V23.0921C86.166 22.5702 86.236 22.1246 86.3761 21.7491C86.5161 21.3736 86.707 21.068 86.9489 20.8262C87.1908 20.5843 87.4708 20.4061 87.7891 20.2852C88.1073 20.1706 88.4447 20.1069 88.7947 20.1069C89.1448 20.1069 89.4376 20.1515 89.7176 20.2342C90.0041 20.317 90.2523 20.4443 90.4687 20.6098C90.6851 20.7753 90.857 20.9853 90.997 21.2335C91.1307 21.4818 91.2134 21.7682 91.2516 22.1055H90.1377C90.0677 21.73 89.915 21.4563 89.6795 21.2844C89.444 21.1126 89.1512 21.0235 88.7947 21.0235C88.5911 21.0235 88.4001 21.0617 88.2219 21.138C88.0437 21.2144 87.8782 21.329 87.7382 21.4881C87.5981 21.6472 87.4836 21.8637 87.4008 22.1246C87.3181 22.3919 87.2735 22.7102 87.2735 23.0921V23.2639C87.2735 23.6649 87.3181 24.0023 87.4072 24.276C87.4963 24.5497 87.6109 24.7724 87.7572 24.9379C87.8973 25.1098 88.0628 25.2307 88.2473 25.3071C88.4319 25.3835 88.6101 25.4216 88.7884 25.4216C89.183 25.4216 89.4949 25.3262 89.724 25.1352C89.9531 24.9443 90.0868 24.6833 90.1314 24.346H91.2452C91.207 24.7024 91.1179 25.0079 90.9779 25.2562C90.8379 25.5044 90.6597 25.7081 90.4432 25.8736C90.2268 26.0327 89.9722 26.1536 89.6922 26.2236C89.4121 26.3 89.1066 26.3382 88.7884 26.3382V26.3318Z" fill="#333333"/>
<path d="M92.4082 26.2366V20.2026H93.4648V24.569L96.3863 20.2026H97.4047V26.2366H96.3481V21.8703L93.4266 26.2366H92.4082Z" fill="#333333"/>
<path d="M98.9609 26.2366V20.2026H100.018V24.569L102.939 20.2026H103.957V26.2366H102.901V21.8703L99.9793 26.2366H98.9609Z" fill="#333333"/>
<path d="M32.4566 12.8891C31.4318 11.8517 30.0061 11.2088 28.4276 11.2088C26.8491 11.2088 25.4361 11.858 24.405 12.9019C23.3739 13.9394 22.731 15.3778 22.731 16.9627C22.731 18.5476 23.3739 19.9478 24.4113 20.9853C25.4488 22.0228 26.8682 22.6657 28.4276 22.6657C29.987 22.6657 31.4255 22.0228 32.4502 20.998C33.4877 19.9606 34.1242 18.5285 34.1242 16.9627C34.1242 15.3969 33.4877 13.933 32.4566 12.8891ZM28.4276 10.8333C30.1143 10.8333 31.6292 11.5207 32.7239 12.6218C33.8251 13.7357 34.4997 15.2696 34.4997 16.9627C34.4997 18.6558 33.8187 20.1579 32.7176 21.2654C31.6228 22.3601 30.1079 23.0412 28.4276 23.0412C26.7473 23.0412 25.2451 22.3538 24.144 21.2463C23.0429 20.1452 22.3555 18.6239 22.3555 16.9627C22.3555 15.3014 23.0429 13.7484 24.1376 12.6345C25.2388 11.5207 26.7664 10.8269 28.4276 10.8269V10.8333Z" fill="#D5B26A"/>
<path fill-rule="evenodd" clip-rule="evenodd" d="M28.4124 11.0122C24.9881 11.566 25.1663 15.5759 28.3615 16.8043C32.5814 17.4662 32.3587 21.9153 28.3615 22.8C20.5454 22.1126 20.7236 11.0122 28.4124 11.0122Z" fill="#D5B26A"/>
<path d="M26.2998 11.9391C26.4781 11.7163 26.6945 11.519 26.9554 11.3535C25.2242 11.7291 24.0276 12.7793 23.372 14.0905C23.0028 14.8352 22.7991 15.6626 22.7737 16.4964C22.7482 17.3366 22.8882 18.1895 23.2065 18.9787C23.9512 20.8373 25.6633 22.3585 28.3621 22.6004C29.6032 22.3139 30.4561 21.6774 30.908 20.9264C31.1563 20.5127 31.2772 20.0608 31.2708 19.6216C31.2645 19.1824 31.1308 18.7496 30.8635 18.3613C30.4116 17.7057 29.5841 17.1774 28.3621 16.9865C28.343 16.9865 28.3239 16.9865 28.3112 16.9738C27.2419 16.5664 26.4972 15.8535 26.0898 15.0579C25.8225 14.536 25.7015 13.9759 25.7397 13.4349C25.7716 12.8939 25.9625 12.3719 26.3126 11.9327M28.4448 11.1944C27.5983 11.3344 26.9873 11.6972 26.6054 12.1682C26.3062 12.5438 26.1407 12.9893 26.1153 13.454C26.0834 13.925 26.1916 14.4214 26.4271 14.8797C26.7899 15.5926 27.4646 16.2354 28.4321 16.6046C29.7687 16.821 30.6789 17.4066 31.1817 18.1385C31.4873 18.5905 31.6464 19.0933 31.6527 19.6088C31.6591 20.118 31.5191 20.64 31.239 21.111C30.7426 21.9511 29.7942 22.664 28.4194 22.9695C28.4003 22.9695 28.3812 22.9695 28.3621 22.9695C25.4851 22.7213 23.6648 21.0919 22.8628 19.106C22.5254 18.2658 22.3727 17.362 22.4045 16.4709C22.4363 15.5799 22.6464 14.6951 23.0474 13.9059C23.9385 12.1301 25.7397 10.8062 28.4321 10.8062C28.5339 10.8062 28.623 10.8889 28.623 10.9971C28.623 11.0989 28.5467 11.1753 28.4512 11.1881L28.4448 11.1944Z" fill="#D5B26A"/>
<path fill-rule="evenodd" clip-rule="evenodd" d="M56.019 23.7781C52.1428 30.7286 41.4497 35.7315 28.9745 35.7315C16.4992 35.7315 5.04237 30.4167 1.48438 23.1289L1.54166 23.1416C1.56712 23.1989 1.59894 23.2626 1.63077 23.3262L1.89173 23.2753C9.73968 27.1197 18.9434 26.6042 28.5862 23.9054C38.9165 20.3474 47.9674 20.3474 55.8535 23.8482L56.019 23.7781Z" fill="#D5B26A"/>
<path d="M2.52148 11.1131C9.73931 14.1682 19.3694 13.7991 28.5922 10.8585C38.9225 7.35776 47.7506 7.96879 55.5286 11.4695" stroke="#D5B26A" stroke-width="0.88" stroke-miterlimit="10"/>
<path d="M49.0417 5.69024C43.8925 2.49505 36.7893 0.509196 28.9795 0.509196C21.1697 0.509196 13.9901 2.48868 8.82815 5.68387C3.69802 8.85997 0.521923 13.2263 0.521923 18.0255C0.521923 22.8246 3.69802 27.1655 8.81542 30.3289C13.9774 33.5113 21.1061 35.4844 28.9795 35.4844C36.8529 35.4844 43.9116 33.5113 49.0545 30.3225C54.1528 27.1655 57.3225 22.8182 57.3225 18.0255C57.3225 13.2327 54.1464 8.86633 49.0417 5.6966M28.9795 0C36.8911 0 44.0898 2.01768 49.3154 5.26379C54.5728 8.529 57.838 13.0481 57.838 18.0318C57.838 23.0156 54.5792 27.5092 49.3218 30.7617C44.0962 33.9951 36.8911 36 28.9731 36C21.0552 36 13.7801 34.0014 8.54173 30.768C3.2652 27.5156 0 23.0092 0 18.0318C0 13.0545 3.27157 8.52263 8.55446 5.25742C13.7928 2.01768 21.017 0.00636143 28.9731 0.00636143L28.9795 0Z" fill="#D5B26A"/>
<path fill-rule="evenodd" clip-rule="evenodd" d="M28.0554 3.57755C27.9599 3.04926 27.4252 2.5146 27.9026 1.93539C28.0681 1.65534 28.1254 1.26708 27.9026 0.821533L28.2336 1.04431C29.3347 1.70626 29.5638 2.5337 28.5327 3.57755H28.0554Z" fill="#D5B26A"/>
<path d="M29.4791 9.21676H27.4868L29.6891 10.4643L29.4791 9.21676ZM29.1799 7.46641H27.6841L29.3581 8.4848L29.1863 7.46641H29.1799ZM27.5059 7.08452H28.9762L27.6714 6.13614L27.5059 7.08452ZM28.8935 5.8179H27.8687L29.0399 6.6708L28.8935 5.8179ZM28.6453 4.3667H27.9769L27.7924 5.436H28.8298L28.6453 4.3667ZM27.0286 3.55835H29.4854V4.3667H29.0271L30.0519 10.3752C29.7782 10.4579 29.5045 10.547 29.2308 10.6361L27.0922 9.42681L26.774 11.2472L26.3984 11.1835L27.5887 4.37306H27.0095V3.56471H27.0286V3.55835ZM27.1941 8.83488H29.199L27.385 7.72738L27.1941 8.83488Z" fill="#D5B26A"/>
<path fill-rule="evenodd" clip-rule="evenodd" d="M17.8157 17.0517C18.3694 16.9881 18.9232 16.918 19.4833 16.8417V18.5729C19.4833 19.1649 19.4833 19.7568 19.426 20.3551V23.8622C19.8143 23.8367 20.2025 23.8113 20.6481 23.7285V21.5199C20.6481 20.7688 20.7054 20.0623 20.7054 19.3113V17.109C20.7054 16.3579 20.7626 15.6514 20.7626 14.9004C19.3751 15.1741 17.9812 15.3141 16.6509 15.4286C16.5936 16.1924 16.5936 16.899 16.5936 17.6055V19.7823C16.5363 20.5461 16.5363 21.2526 16.5363 21.9591V24.1422C16.9246 24.1295 17.3128 24.1168 17.7584 24.0468V22.3091C17.7584 21.7108 17.7584 21.1125 17.8157 20.5206V17.0517ZM14.8687 21.1571C14.7605 22.4173 14.4232 22.7992 13.9267 22.7929C13.7039 22.7929 13.4239 22.7292 13.2011 22.341C12.9783 21.9527 12.8128 21.2271 12.8128 19.9096C12.8128 18.592 13.0356 17.7709 13.2584 17.389C13.4812 17.0135 13.7612 16.9626 13.9267 16.969C14.4232 16.9308 14.7605 17.2108 14.8687 18.4711C15.257 18.4711 15.6452 18.4265 16.0335 18.4265C16.0335 18.0446 16.0335 17.2236 15.7534 16.568C15.4225 15.8551 14.9196 15.2441 13.8631 15.2632C12.9211 15.225 12.31 15.8042 11.9727 16.7271C11.8072 17.1599 11.699 17.7073 11.5844 18.2547C11.5271 18.8021 11.4762 19.3558 11.4762 19.9096C11.4762 20.737 11.5271 21.4053 11.6417 22.0163C11.7499 22.5701 11.9218 23.0729 12.0872 23.4103C12.5328 24.1932 13.0865 24.4796 13.8121 24.4859C14.5314 24.4859 15.0342 24.2122 15.4225 23.6076C15.8107 23.0538 15.9762 22.1818 16.0908 21.0871C15.7025 21.0871 15.257 21.1444 14.8687 21.1444V21.1571ZM9.36943 16.8035C10.0377 16.8989 10.757 17.0008 11.4253 17.039V15.3777C10.3114 15.1995 9.20394 15.0722 8.14736 14.8876V17.0581C8.09008 17.7773 8.09008 18.5602 8.09008 19.2794V23.6776C8.53562 23.7667 8.92388 23.8431 9.31214 23.9195V22.1436C9.36942 21.5326 9.36943 20.9789 9.36943 20.3678V16.8098V16.8035ZM4.42388 18.8084C4.92671 18.9676 5.48046 19.1776 5.97692 19.3367V23.1302C6.42247 23.2257 6.81073 23.3657 7.19899 23.4485V16.8735C7.19899 16.1479 7.25627 15.4287 7.25627 14.6521C6.81073 14.5567 6.42247 14.4739 5.97692 14.3784V17.6691C5.47409 17.4591 4.92035 17.2999 4.3666 17.1408C4.3666 16.5807 4.42388 16.0333 4.3666 15.5241C4.3666 14.964 4.42388 14.4166 4.3666 13.9074C3.97834 13.761 3.59008 13.621 3.14453 13.4683V21.9145C3.59008 22.1245 3.97834 22.3346 4.3666 22.481C4.42388 21.8763 4.3666 21.2589 4.3666 20.6479C4.42388 20.0369 4.3666 19.4258 4.42388 18.8148V18.8084Z" fill="#D5B26A"/>
<path fill-rule="evenodd" clip-rule="evenodd" d="M35.7812 19.9546C36.0995 19.9037 36.475 19.8528 36.7933 19.7955V18.1661C36.7933 17.5869 36.7933 17.065 36.7424 16.4794C36.9524 16.4794 37.1688 16.4285 37.3788 16.4285C37.3788 15.8875 37.3788 15.3401 37.3788 14.7927C37.1688 14.7927 36.9524 14.7927 36.7424 14.8436V12.5777C36.9524 12.5268 37.1688 12.5331 37.3788 12.4759V10.7382C36.8442 10.7892 36.3159 10.8337 35.7876 10.8846V19.9419M41.1596 10.3945V12.1194H41.1023C40.835 12.1131 40.625 12.2658 40.5168 12.6795C40.3576 13.1505 40.3003 13.8825 40.3067 15.0855C40.3576 16.3966 40.4658 17.1286 40.625 17.4978C40.7841 17.8669 41.0005 17.9751 41.1596 17.9751V19.7C40.3576 19.6428 39.8803 18.8599 39.6193 17.9115C39.4856 17.415 39.4029 16.874 39.3583 16.3776C39.3138 15.8811 39.3011 15.4165 39.3011 15.0791C39.3011 14.7672 39.3011 14.3026 39.3265 13.7998C39.352 13.2969 39.4029 12.7432 39.5111 12.2467C39.7784 11.2602 40.2049 10.3754 41.0514 10.4009C41.1023 10.4009 41.1596 10.4009 41.1596 10.4009V10.3945ZM37.3852 16.4221C37.5443 16.4221 37.9199 16.3203 37.9708 17.3705C38.0217 18.5798 37.9708 18.9999 38.1299 19.63C38.4991 19.5791 38.8237 19.5791 39.1419 19.5282C38.8746 18.6371 38.8746 17.6378 38.8746 16.9058C38.8746 16.1166 38.8237 15.5883 38.3399 15.5374V15.4292C38.8173 15.2764 39.0274 14.0162 38.9764 13.176C38.9764 12.5968 38.9255 11.9667 38.7091 11.4893C38.55 11.0183 38.2317 10.6937 37.6971 10.7382C37.5889 10.7382 37.4807 10.7382 37.3788 10.7382V12.4759H37.4298C37.748 12.4759 38.0153 12.6413 38.0153 13.5834C38.0153 14.6336 37.6971 14.7354 37.4807 14.7354C37.4467 14.7693 37.4107 14.7863 37.3725 14.7863C37.3725 15.3337 37.3725 15.8747 37.3725 16.4221H37.3852ZM41.166 19.6937V17.9688C41.1999 17.9688 41.236 17.9688 41.2742 17.9688C41.4333 17.9688 41.6433 17.9179 41.8025 17.5041C41.9616 17.0904 42.0698 16.3585 42.0698 15.06C42.0125 13.9143 41.9107 13.1824 41.7515 12.705C41.5924 12.3358 41.376 12.1767 41.166 12.1194V10.3945C41.9616 10.5218 42.439 11.3174 42.7063 12.3104C42.8399 12.8068 42.9163 13.3478 42.9609 13.8379C43.0054 14.3344 43.0245 14.7863 43.0245 15.1237C43.05 15.4355 43.0627 15.8811 43.0373 16.3648C43.0118 16.8486 42.9418 17.3832 42.8145 17.8797C42.6044 18.8662 42.178 19.6937 41.2742 19.6937C41.2742 19.6937 41.2233 19.6937 41.166 19.6937ZM46.8562 16.0784C46.8562 15.7156 46.8053 15.4037 46.8053 15.0982C46.2706 15.0346 45.7424 14.9773 45.2077 14.9136C45.265 15.4292 45.265 15.9511 45.265 16.4667C45.5323 16.4667 45.7487 16.524 46.0097 16.5303C46.0097 17.2496 45.9015 18.2298 45.265 18.1725C44.9467 18.1215 44.7367 17.9115 44.5776 17.4405C44.4184 16.9759 44.3102 16.2439 44.3102 15.2128C44.253 13.9143 44.3612 13.1951 44.5203 12.8387C44.6794 12.4313 44.9467 12.3867 45.1059 12.3867C45.265 12.3867 45.7424 12.5077 45.7933 13.8507C46.1115 13.857 46.4298 13.9143 46.7544 13.978C46.6462 12.6923 46.4298 11.9157 46.1115 11.3875C45.7933 10.9165 45.4241 10.751 45.0486 10.7382C44.3039 10.6109 43.8265 11.2156 43.5592 12.0367C43.4255 12.4759 43.3491 12.9787 43.311 13.507C43.2728 14.0289 43.2728 14.5763 43.2982 15.0982C43.3237 16.1612 43.4192 16.9822 43.5528 17.6187C43.6865 18.2552 43.8583 18.7071 44.0429 19.0508C44.4184 19.6746 44.8958 19.8273 45.2141 19.8273C45.6405 19.8846 46.016 19.6809 46.2261 18.7517C46.2261 19.0635 46.2261 19.3691 46.277 19.681C46.4361 19.681 46.6525 19.7319 46.8626 19.7319V16.0848L46.8562 16.0784ZM46.8562 11.1965V11.9667C46.8053 11.7057 46.748 11.4511 46.748 11.1965C46.748 11.1965 46.7989 11.1965 46.8562 11.1965ZM51.6426 12.1767C51.6426 13.0423 51.6999 13.908 51.6999 14.7672C51.6999 15.6265 51.7572 16.543 51.7572 17.4023C51.7572 18.3189 51.8654 19.1781 52.0755 19.891C52.2919 20.5466 52.661 21.0048 53.2975 21.1576C53.8831 21.3104 54.2586 21.0558 54.4687 20.502C54.6851 19.9483 54.736 19.0827 54.736 18.1725V15.5883C54.736 14.729 54.736 13.8698 54.736 13.0041C54.4177 12.9023 54.0995 12.8005 53.8322 12.7496C53.8322 13.5579 53.8322 14.3662 53.8322 15.1809C53.8322 15.9893 53.8831 16.7976 53.8831 17.6124C53.8831 19.229 53.724 19.6364 53.2975 19.5346C52.8202 19.4327 52.661 18.9235 52.6037 17.2495C52.6037 16.4412 52.6037 15.6265 52.6037 14.8182C52.5528 14.0098 52.5465 13.1951 52.5465 12.3867C52.2218 12.3295 51.9609 12.2276 51.6363 12.1703L51.6426 12.1767ZM46.8562 11.9667C46.939 12.5586 47.0153 13.1505 47.0981 13.7488C47.1808 14.3408 47.2572 14.9327 47.34 15.5247C47.4163 16.2439 47.5118 16.9759 47.6136 17.7078C47.7091 18.4398 47.8173 19.1718 47.9255 19.8846C48.2438 19.9355 48.562 19.9928 48.8866 20.0437C48.9121 19.5346 48.9375 19.0317 48.9694 18.5353C49.0012 18.0388 49.0457 17.5423 49.0967 17.0331C49.1221 16.5239 49.1476 16.0275 49.1794 15.531C49.2049 15.0346 49.2303 14.5381 49.2558 14.0289C49.3067 14.5635 49.3767 15.0918 49.4404 15.6074C49.5104 16.123 49.574 16.6321 49.625 17.1413C49.6759 17.6505 49.7332 18.1597 49.7841 18.6689C49.835 19.1781 49.8923 19.6873 49.9432 20.1965C50.2614 20.2474 50.5797 20.3493 50.8979 20.4066C50.9489 19.7191 51.0189 19.0317 51.0825 18.3507C51.1462 17.6633 51.2162 16.9822 51.2671 16.2948C51.318 15.6074 51.3753 14.9264 51.4326 14.2389C51.4899 13.5579 51.5599 12.8705 51.6363 12.1831C51.318 12.0812 50.9998 12.024 50.6752 11.9667C50.6497 12.4504 50.6243 12.9341 50.5924 13.4179C50.5606 13.9016 50.5224 14.3853 50.4651 14.8627C50.4397 15.3464 50.4142 15.8429 50.3887 16.3394C50.3633 16.8358 50.3378 17.3323 50.3124 17.8097C50.2614 17.3005 50.2042 16.7913 50.1469 16.2821C50.0896 15.7729 50.0196 15.2637 49.9432 14.7545C49.8859 14.2453 49.835 13.7361 49.7777 13.2206C49.7268 12.7114 49.6695 12.1958 49.6186 11.6866C49.3513 11.6293 49.033 11.572 48.7657 11.5657C48.7402 12.0494 48.7148 12.5331 48.683 13.0169C48.6511 13.5006 48.6129 13.9843 48.5556 14.4681C48.5302 14.9773 48.5047 15.4801 48.4793 15.9702C48.4538 16.4603 48.4283 16.944 48.3965 17.4278C48.3456 16.9186 48.2756 16.4157 48.2119 15.9193C48.1483 15.4228 48.0783 14.92 48.0274 14.4044C47.9764 13.8889 47.9192 13.3797 47.8619 12.8641C47.811 12.3486 47.7537 11.8394 47.7027 11.3238C47.3845 11.3111 47.1172 11.2538 46.8498 11.1965V11.9667H46.8562ZM46.8562 19.7255V16.0784C46.8562 16.5367 46.8562 16.9504 46.9071 17.415C46.9071 18.1852 46.9071 18.9553 46.9581 19.7255H46.8498H46.8562Z" fill="#D5B26A"/>
</svg>
