<?xml version="1.0" encoding="utf-8"?><svg viewBox="0 0 28 28" xmlns="http://www.w3.org/2000/svg" xmlns:xlink="http://www.w3.org/1999/xlink"><style>:root>svg{display:none}:root>svg:target{display:block}</style><svg fill="none" viewBox="0 0 28 28" id="vk_white" xmlns="http://www.w3.org/2000/svg"><path d="M18.302 0H9.713C1.865 0 0 1.866 0 9.698v8.59C0 26.134 1.852 28 9.698 28h8.59C26.134 28 28 26.148 28 18.302V9.713C28 1.865 26.148 0 18.302 0Zm4.302 19.978h-2.042c-.773 0-1.005-.626-2.391-2.012-1.21-1.166-1.721-1.312-2.028-1.312-.422 0-.539.117-.539.7v1.837c0 .497-.16.788-1.458.788a7.968 7.968 0 0 1-6.228-3.733 16.276 16.276 0 0 1-3.222-6.767c0-.306.116-.583.7-.583h2.042c.525 0 .714.233.919.772.99 2.918 2.682 5.455 3.368 5.455.263 0 .378-.116.378-.773v-3.004c-.087-1.371-.815-1.487-.815-1.983a.504.504 0 0 1 .524-.467h3.209c.438 0 .583.218.583.743v4.054c0 .439.19.584.321.584.263 0 .466-.145.948-.627a16.8 16.8 0 0 0 2.509-4.172.88.88 0 0 1 .889-.582h2.042c.612 0 .742.306.612.743a25.485 25.485 0 0 1-2.741 4.711c-.22.336-.308.511 0 .904.203.307.918.905 1.4 1.473a9.08 9.08 0 0 1 1.72 2.391c.175.569-.117.86-.7.86Z" fill="#fff"/></svg></svg>