<svg width="341" height="63" viewBox="0 0 341 63" fill="none" xmlns="http://www.w3.org/2000/svg">
  <path d="M119.641 27.8211V17.2617H121.49V21.6058H126.524V17.2617H128.373V27.8211H126.524V23.1763H121.49V27.8211H119.641Z" fill="white" />
  <path d="M131.102 27.8211V17.2617H138.186V18.7877H132.951V21.6503H137.729V23.1318H132.951V26.2951H138.186V27.8211H131.102Z" fill="white" />
  <path d="M144.678 28.2669V27.231C143.909 27.231 143.207 27.1196 142.595 26.8969C141.982 26.6741 141.459 26.3622 141.024 25.9501C140.601 25.538 140.267 25.0479 140.033 24.4686C139.799 23.8894 139.688 23.2545 139.688 22.5528V22.2521C139.688 21.6172 139.799 21.038 140.033 20.5033C140.267 19.9686 140.59 19.512 141.024 19.111C141.447 18.7211 141.971 18.4092 142.595 18.1865C143.218 17.9637 143.909 17.8523 144.678 17.8523V16.8164H146.504V17.8523C147.273 17.8523 147.975 17.9637 148.587 18.1865C149.2 18.4092 149.735 18.71 150.158 19.111C150.592 19.5008 150.915 19.9686 151.149 20.5033C151.383 21.038 151.483 21.6172 151.483 22.2521V22.5528C151.483 23.2545 151.372 23.9006 151.149 24.4686C150.926 25.0479 150.592 25.538 150.158 25.9501C149.723 26.3622 149.2 26.6852 148.587 26.8969C147.975 27.1085 147.273 27.231 146.504 27.231V28.2669H144.678ZM144.678 25.6271V19.4451C144.187 19.4451 143.753 19.512 143.374 19.6456C142.996 19.7793 142.684 19.9686 142.416 20.2137C142.149 20.4587 141.96 20.7595 141.826 21.0936C141.692 21.4278 141.626 21.8177 141.626 22.2409V22.5417C141.626 23.0318 141.692 23.4773 141.826 23.856C141.96 24.2459 142.149 24.5689 142.405 24.8251C142.662 25.0924 142.985 25.2818 143.363 25.4266C143.742 25.5714 144.187 25.6271 144.678 25.6271ZM146.504 25.6271C146.994 25.6271 147.429 25.5602 147.819 25.4266C148.209 25.2929 148.52 25.0924 148.777 24.8251C149.033 24.5689 149.233 24.2459 149.367 23.856C149.501 23.4662 149.567 23.0318 149.567 22.5417V22.2409C149.567 21.8177 149.501 21.4389 149.367 21.0936C149.233 20.7483 149.033 20.4587 148.765 20.2137C148.509 19.9686 148.186 19.7793 147.808 19.6456C147.429 19.512 146.994 19.4451 146.504 19.4451V25.6271Z" fill="white" />
  <path d="M155.828 27.8211V18.8323H152.297V17.2617H161.197V18.8323H157.666V27.8211H155.828Z" fill="white" />
  <path d="M162.844 27.8211V17.2617H169.928V18.7877H164.693V21.6503H169.471V23.1318H164.693V26.2951H169.928V27.8211H162.844Z" fill="white" />
  <path d="M172.121 27.8211V17.2617H178.905V18.8323H173.97V27.8211H172.121Z" fill="white" />
  <path d="M178.039 27.8211L182.004 17.2617H183.865L187.841 27.8211H185.847L184.945 25.3929H180.779L179.877 27.8211H178.039ZM181.358 23.8892H184.377L182.873 19.5786L181.369 23.8892H181.358Z" fill="white" />
  <path d="M192.682 27.9893C192.025 27.9893 191.446 27.9113 190.934 27.7442C190.421 27.5883 189.987 27.3544 189.642 27.0648C189.285 26.7752 189.018 26.4187 188.806 26.0177C188.606 25.6056 188.494 25.1601 188.461 24.6477H190.332C190.377 24.915 190.455 25.1601 190.566 25.3828C190.678 25.6056 190.833 25.795 191.034 25.9509C191.234 26.1069 191.468 26.2294 191.736 26.3073C192.003 26.3853 192.326 26.4299 192.682 26.4299C193.507 26.4299 194.097 26.2851 194.465 25.9955C194.832 25.7059 195.01 25.3049 195.01 24.7925C195.01 24.5474 194.966 24.3135 194.888 24.1019C194.81 23.8903 194.676 23.7232 194.487 23.5673C194.298 23.4113 194.053 23.2999 193.752 23.2108C193.451 23.1217 193.083 23.0772 192.671 23.0772H191.39V21.696H192.671C193.351 21.696 193.852 21.54 194.164 21.2393C194.476 20.9385 194.632 20.571 194.632 20.1366C194.632 19.7022 194.476 19.3457 194.153 19.0672C193.841 18.7888 193.34 18.644 192.671 18.644C192.315 18.644 192.014 18.6774 191.758 18.7554C191.502 18.8222 191.29 18.9224 191.112 19.0561C190.945 19.1898 190.811 19.3457 190.722 19.5462C190.633 19.7467 190.566 19.9583 190.544 20.2034H188.673C188.706 19.7356 188.806 19.3012 188.984 18.9113C189.163 18.5215 189.419 18.1984 189.742 17.9311C190.065 17.6638 190.477 17.4633 190.967 17.3185C191.457 17.1737 192.025 17.0957 192.66 17.0957C193.941 17.0957 194.91 17.363 195.545 17.8977C196.18 18.4323 196.503 19.1564 196.503 20.0697C196.503 20.6267 196.347 21.0945 196.046 21.4843C195.746 21.8742 195.333 22.1526 194.821 22.3197C195.456 22.4757 195.957 22.7541 196.325 23.1885C196.692 23.6118 196.882 24.1799 196.882 24.8705C196.882 25.3272 196.793 25.7393 196.614 26.118C196.436 26.4967 196.169 26.8309 195.812 27.1093C195.456 27.3878 195.022 27.5994 194.498 27.7554C193.975 27.9113 193.362 27.9893 192.671 27.9893H192.682Z" fill="white" />
  <path d="M202.866 27.9892C202.232 27.9892 201.641 27.8889 201.084 27.6884C200.527 27.4879 200.037 27.1649 199.625 26.7305C199.213 26.2961 198.879 25.7392 198.634 25.0597C198.389 24.3802 198.277 23.5671 198.277 22.6203V22.3196C198.277 21.4062 198.4 20.6265 198.645 19.9693C198.89 19.3122 199.224 18.7775 199.647 18.3542C200.071 17.931 200.561 17.6191 201.118 17.4075C201.675 17.207 202.265 17.0956 202.878 17.0956C203.49 17.0956 204.003 17.1736 204.493 17.3184C204.994 17.4632 205.428 17.6859 205.807 17.9755C206.186 18.2651 206.486 18.6327 206.732 19.0671C206.965 19.5015 207.11 20.0028 207.177 20.5931H205.228C205.105 19.9359 204.838 19.457 204.426 19.1562C204.014 18.8555 203.501 18.6995 202.878 18.6995C202.521 18.6995 202.187 18.7664 201.875 18.9C201.563 19.0337 201.274 19.2342 201.029 19.5127C200.784 19.7911 200.583 20.1699 200.438 20.6265C200.293 21.0944 200.215 21.6513 200.215 22.3196V22.6203C200.215 23.3221 200.293 23.9124 200.449 24.3914C200.605 24.8703 200.806 25.2602 201.062 25.5498C201.307 25.8505 201.597 26.0622 201.92 26.1958C202.243 26.3295 202.555 26.3963 202.866 26.3963C203.557 26.3963 204.103 26.2293 204.504 25.8951C204.905 25.5609 205.139 25.1042 205.217 24.5139H207.166C207.099 25.1377 206.943 25.6723 206.698 26.1067C206.453 26.5411 206.141 26.8976 205.762 27.1872C205.384 27.4656 204.938 27.6773 204.448 27.7998C203.958 27.9335 203.423 28.0003 202.866 28.0003V27.9892Z" fill="white" />
  <path d="M211.39 27.8211V18.8323H207.859V17.2617H216.759V18.8323H213.228V27.8211H211.39Z" fill="white" />
  <path d="M218.406 27.8211V17.2617H222.249C222.951 17.2617 223.563 17.3397 224.087 17.5068C224.61 17.6627 225.045 17.8966 225.379 18.1974C225.724 18.4981 225.969 18.8434 226.136 19.2555C226.304 19.6677 226.382 20.1243 226.382 20.6256C226.382 21.1268 226.304 21.5835 226.136 21.9956C225.969 22.4078 225.713 22.7642 225.379 23.0538C225.034 23.3434 224.599 23.5773 224.087 23.7444C223.563 23.9003 222.951 23.9894 222.249 23.9894H220.255V27.8211H218.406ZM220.255 22.4189H222.093C222.995 22.4189 223.63 22.263 223.998 21.9399C224.365 21.6169 224.544 21.1825 224.544 20.6144C224.544 20.0464 224.365 19.612 223.998 19.3001C223.63 18.9882 223.006 18.8211 222.093 18.8211H220.255V22.4078V22.4189Z" fill="white" />
  <path d="M232.675 27.9893C232.04 27.9893 231.438 27.889 230.848 27.6774C230.269 27.4769 229.756 27.1539 229.311 26.7195C228.865 26.2851 228.509 25.7393 228.253 25.0598C227.996 24.3804 227.852 23.5672 227.852 22.6205V22.3197C227.852 21.4063 227.985 20.6266 228.253 19.9695C228.52 19.3123 228.876 18.7776 229.311 18.3432C229.756 17.92 230.269 17.5969 230.848 17.3965C231.427 17.196 232.04 17.0957 232.675 17.0957C233.309 17.0957 233.911 17.196 234.501 17.3965C235.081 17.5969 235.593 17.9088 236.038 18.3432C236.484 18.7665 236.84 19.3123 237.097 19.9695C237.353 20.6266 237.498 21.4063 237.498 22.3197V22.6205C237.498 23.5784 237.364 24.3915 237.097 25.0598C236.829 25.7281 236.473 26.2851 236.038 26.7195C235.593 27.1539 235.081 27.4769 234.501 27.6774C233.922 27.8779 233.309 27.9893 232.675 27.9893ZM232.675 26.3965C233.042 26.3965 233.41 26.3296 233.755 26.196C234.111 26.0623 234.412 25.8507 234.68 25.5499C234.947 25.2492 235.147 24.8593 235.314 24.3804C235.47 23.9014 235.559 23.3111 235.559 22.6205V22.3197C235.559 21.6625 235.481 21.0945 235.314 20.6378C235.158 20.1811 234.947 19.8024 234.68 19.5239C234.423 19.2343 234.111 19.0338 233.755 18.9002C233.399 18.7665 233.042 18.6997 232.675 18.6997C232.307 18.6997 231.939 18.7665 231.594 18.9002C231.238 19.0338 230.937 19.2343 230.67 19.5239C230.402 19.8135 230.202 20.1811 230.035 20.6378C229.879 21.0945 229.79 21.6514 229.79 22.3197V22.6205C229.79 23.3111 229.868 23.9014 230.035 24.3804C230.191 24.8593 230.402 25.2492 230.67 25.5499C230.937 25.8507 231.238 26.0623 231.594 26.196C231.951 26.3296 232.307 26.3965 232.675 26.3965Z" fill="white" />
  <path d="M239.68 27.8223V17.2629H241.529V24.904L246.641 17.2629H248.424V27.8223H246.574V20.1812L241.462 27.8223H239.68ZM244.057 16.5612C243.589 16.5612 243.188 16.5166 242.854 16.4052C242.509 16.305 242.23 16.1602 242.008 15.9597C241.785 15.7592 241.618 15.5142 241.506 15.2246C241.395 14.9238 241.339 14.5897 241.339 14.2109H242.954C242.954 14.6565 243.044 14.9684 243.233 15.1466C243.422 15.3248 243.69 15.4139 244.057 15.4139C244.436 15.4139 244.725 15.3248 244.904 15.1466C245.082 14.9684 245.171 14.6565 245.171 14.2109H246.764C246.764 14.5897 246.708 14.935 246.597 15.2246C246.485 15.5142 246.318 15.7704 246.096 15.9597C245.873 16.1602 245.594 16.305 245.249 16.4052C244.904 16.5055 244.503 16.5612 244.046 16.5612H244.057Z" fill="white" />
  <path d="M251.141 27.8211V17.2617H259.74V27.8211H257.891V18.8323H253.001V27.8211H251.152H251.141Z" fill="white" />
  <path d="M262.445 27.8211V17.2617H266.288C266.99 17.2617 267.602 17.3397 268.126 17.5068C268.65 17.6627 269.084 17.8966 269.418 18.1974C269.763 18.4981 270.008 18.8434 270.176 19.2555C270.343 19.6677 270.421 20.1243 270.421 20.6256C270.421 21.1268 270.343 21.5835 270.176 21.9956C270.008 22.4078 269.752 22.7642 269.418 23.0538C269.073 23.3434 268.638 23.5773 268.126 23.7444C267.602 23.9003 266.99 23.9894 266.288 23.9894H264.294V27.8211H262.445ZM264.294 22.4189H266.132C267.034 22.4189 267.669 22.263 268.037 21.9399C268.404 21.6169 268.583 21.1825 268.583 20.6144C268.583 20.0464 268.404 19.612 268.037 19.3001C267.669 18.9882 267.046 18.8211 266.132 18.8211H264.294V22.4078V22.4189Z" fill="white" />
  <path d="M276.718 27.9893C276.083 27.9893 275.481 27.889 274.891 27.6774C274.312 27.4769 273.799 27.1539 273.354 26.7195C272.908 26.2851 272.552 25.7393 272.296 25.0598C272.039 24.3804 271.895 23.5672 271.895 22.6205V22.3197C271.895 21.4063 272.028 20.6266 272.296 19.9695C272.563 19.3123 272.919 18.7776 273.354 18.3432C273.799 17.92 274.312 17.5969 274.891 17.3965C275.47 17.196 276.083 17.0957 276.718 17.0957C277.352 17.0957 277.954 17.196 278.544 17.3965C279.123 17.5969 279.636 17.9088 280.081 18.3432C280.527 18.7665 280.883 19.3123 281.14 19.9695C281.396 20.6266 281.541 21.4063 281.541 22.3197V22.6205C281.541 23.5784 281.407 24.3915 281.14 25.0598C280.872 25.7281 280.516 26.2851 280.081 26.7195C279.636 27.1539 279.123 27.4769 278.544 27.6774C277.965 27.8779 277.352 27.9893 276.718 27.9893ZM276.718 26.3965C277.085 26.3965 277.453 26.3296 277.798 26.196C278.154 26.0623 278.455 25.8507 278.722 25.5499C278.99 25.2492 279.19 24.8593 279.357 24.3804C279.513 23.9014 279.602 23.3111 279.602 22.6205V22.3197C279.602 21.6625 279.524 21.0945 279.357 20.6378C279.201 20.1811 278.99 19.8024 278.722 19.5239C278.466 19.2343 278.154 19.0338 277.798 18.9002C277.442 18.7665 277.085 18.6997 276.718 18.6997C276.35 18.6997 275.982 18.7665 275.637 18.9002C275.281 19.0338 274.98 19.2343 274.713 19.5239C274.445 19.8135 274.245 20.1811 274.078 20.6378C273.922 21.0945 273.833 21.6514 273.833 22.3197V22.6205C273.833 23.3111 273.911 23.9014 274.078 24.3804C274.234 24.8593 274.445 25.2492 274.713 25.5499C274.98 25.8507 275.281 26.0623 275.637 26.196C275.994 26.3296 276.35 26.3965 276.718 26.3965Z" fill="white" />
  <path d="M288.115 28.2669V27.231C287.347 27.231 286.645 27.1196 286.032 26.8969C285.42 26.6741 284.896 26.3622 284.462 25.9501C284.038 25.538 283.704 25.0479 283.47 24.4686C283.236 23.8894 283.125 23.2545 283.125 22.5528V22.2521C283.125 21.6172 283.236 21.038 283.47 20.5033C283.704 19.9686 284.027 19.512 284.462 19.111C284.885 18.7211 285.408 18.4092 286.032 18.1865C286.656 17.9637 287.347 17.8523 288.115 17.8523V16.8164H289.942V17.8523C290.71 17.8523 291.412 17.9637 292.025 18.1865C292.637 18.4092 293.172 18.71 293.595 19.111C294.03 19.5008 294.353 19.9686 294.587 20.5033C294.821 21.038 294.921 21.6172 294.921 22.2521V22.5528C294.921 23.2545 294.809 23.9006 294.587 24.4686C294.364 25.0479 294.03 25.538 293.595 25.9501C293.161 26.3622 292.637 26.6852 292.025 26.8969C291.412 27.1085 290.71 27.231 289.942 27.231V28.2669H288.115ZM288.115 25.6271V19.4451C287.625 19.4451 287.191 19.512 286.812 19.6456C286.433 19.7793 286.121 19.9686 285.854 20.2137C285.587 20.4587 285.397 20.7595 285.264 21.0936C285.13 21.4278 285.063 21.8177 285.063 22.2409V22.5417C285.063 23.0318 285.13 23.4773 285.264 23.856C285.397 24.2459 285.587 24.5689 285.843 24.8251C286.099 25.0924 286.422 25.2818 286.801 25.4266C287.179 25.5714 287.625 25.6271 288.115 25.6271ZM289.942 25.6271C290.432 25.6271 290.866 25.5602 291.256 25.4266C291.646 25.2929 291.958 25.0924 292.214 24.8251C292.47 24.5689 292.671 24.2459 292.804 23.856C292.938 23.4662 293.005 23.0318 293.005 22.5417V22.2409C293.005 21.8177 292.938 21.4389 292.804 21.0936C292.671 20.7483 292.47 20.4587 292.203 20.2137C291.947 19.9686 291.624 19.7793 291.245 19.6456C290.866 19.512 290.432 19.4451 289.942 19.4451V25.6271Z" fill="white" />
  <path d="M301.109 27.9893C300.474 27.9893 299.883 27.889 299.326 27.6885C298.77 27.488 298.279 27.165 297.867 26.7306C297.455 26.2962 297.121 25.7393 296.876 25.0598C296.631 24.3804 296.52 23.5672 296.52 22.6205V22.3197C296.52 21.4063 296.642 20.6266 296.887 19.9695C297.132 19.3123 297.466 18.7776 297.89 18.3544C298.313 17.9311 298.803 17.6192 299.36 17.4076C299.917 17.2071 300.507 17.0957 301.12 17.0957C301.732 17.0957 302.245 17.1737 302.735 17.3185C303.236 17.4633 303.671 17.6861 304.049 17.9757C304.428 18.2653 304.729 18.6328 304.974 19.0672C305.208 19.5016 305.352 20.0029 305.419 20.5932H303.47C303.347 19.936 303.08 19.4571 302.668 19.1564C302.256 18.8556 301.744 18.6997 301.12 18.6997C300.763 18.6997 300.429 18.7665 300.117 18.9002C299.805 19.0338 299.516 19.2343 299.271 19.5128C299.026 19.7913 298.825 20.17 298.68 20.6267C298.536 21.0945 298.458 21.6514 298.458 22.3197V22.6205C298.458 23.3222 298.536 23.9125 298.692 24.3915C298.848 24.8705 299.048 25.2603 299.304 25.5499C299.549 25.8507 299.839 26.0623 300.162 26.196C300.485 26.3296 300.797 26.3965 301.109 26.3965C301.799 26.3965 302.345 26.2294 302.746 25.8952C303.147 25.5611 303.381 25.1044 303.459 24.514H305.408C305.341 25.1378 305.185 25.6724 304.94 26.1069C304.695 26.5413 304.383 26.8977 304.005 27.1873C303.626 27.4658 303.18 27.6774 302.69 27.7999C302.2 27.9336 301.666 28.0004 301.109 28.0004V27.9893Z" fill="white" />
  <path d="M311.733 27.9893C311.098 27.9893 310.497 27.889 309.906 27.6774C309.327 27.4769 308.815 27.1539 308.369 26.7195C307.924 26.2851 307.567 25.7393 307.311 25.0598C307.055 24.3804 306.91 23.5672 306.91 22.6205V22.3197C306.91 21.4063 307.044 20.6266 307.311 19.9695C307.578 19.3123 307.935 18.7776 308.369 18.3432C308.815 17.92 309.327 17.5969 309.906 17.3965C310.486 17.196 311.098 17.0957 311.733 17.0957C312.368 17.0957 312.97 17.196 313.56 17.3965C314.139 17.5969 314.652 17.9088 315.097 18.3432C315.543 18.7665 315.899 19.3123 316.155 19.9695C316.411 20.6266 316.556 21.4063 316.556 22.3197V22.6205C316.556 23.5784 316.423 24.3915 316.155 25.0598C315.888 25.7281 315.531 26.2851 315.097 26.7195C314.652 27.1539 314.139 27.4769 313.56 27.6774C312.981 27.8779 312.368 27.9893 311.733 27.9893ZM311.733 26.3965C312.101 26.3965 312.468 26.3296 312.814 26.196C313.17 26.0623 313.471 25.8507 313.738 25.5499C314.005 25.2492 314.206 24.8593 314.373 24.3804C314.529 23.9014 314.618 23.3111 314.618 22.6205V22.3197C314.618 21.6625 314.54 21.0945 314.373 20.6378C314.217 20.1811 314.005 19.8024 313.738 19.5239C313.482 19.2343 313.17 19.0338 312.814 18.9002C312.457 18.7665 312.101 18.6997 311.733 18.6997C311.366 18.6997 310.998 18.7665 310.653 18.9002C310.296 19.0338 309.996 19.2343 309.728 19.5239C309.461 19.8135 309.26 20.1811 309.093 20.6378C308.937 21.0945 308.848 21.6514 308.848 22.3197V22.6205C308.848 23.3111 308.926 23.9014 309.093 24.3804C309.249 24.8593 309.461 25.2492 309.728 25.5499C309.996 25.8507 310.296 26.0623 310.653 26.196C311.009 26.3296 311.366 26.3965 311.733 26.3965Z" fill="white" />
  <path d="M326.617 27.9893C326.038 27.9893 325.492 27.9002 324.98 27.722C324.467 27.5437 324.022 27.2653 323.632 26.8643C323.242 26.4744 322.93 25.9732 322.685 25.3606C322.44 24.7479 322.295 24.0239 322.251 23.1663H320.591V27.8111H318.742V17.2516H320.591V21.5957H322.284C322.34 20.8049 322.485 20.1254 322.73 19.5573C322.975 18.9893 323.287 18.5215 323.677 18.1539C324.055 17.7863 324.501 17.519 325.002 17.3519C325.503 17.1848 326.038 17.0957 326.617 17.0957C327.23 17.0957 327.809 17.196 328.344 17.3853C328.878 17.5858 329.346 17.8866 329.758 18.3098C330.159 18.7331 330.482 19.2677 330.716 19.9249C330.95 20.5821 331.073 21.3729 331.073 22.2975V22.5982C331.073 23.5672 330.95 24.3804 330.716 25.0598C330.482 25.7281 330.159 26.2851 329.758 26.7306C329.357 27.1762 328.889 27.488 328.344 27.6774C327.809 27.8779 327.23 27.967 326.617 27.967V27.9893ZM326.617 26.3965C326.962 26.3965 327.286 26.3296 327.586 26.196C327.887 26.0623 328.154 25.8507 328.377 25.5499C328.6 25.2492 328.789 24.8593 328.923 24.3804C329.057 23.9014 329.123 23.3111 329.123 22.6205V22.3197C329.123 21.6625 329.057 21.0945 328.923 20.6378C328.789 20.1811 328.611 19.8024 328.377 19.5239C328.143 19.2455 327.887 19.0338 327.586 18.9002C327.286 18.7665 326.962 18.6997 326.617 18.6997C326.272 18.6997 325.949 18.7665 325.648 18.9002C325.336 19.0338 325.08 19.2343 324.846 19.5239C324.612 19.8135 324.434 20.1811 324.3 20.6378C324.167 21.0945 324.1 21.6514 324.1 22.3197V22.6205C324.1 23.3111 324.167 23.9014 324.3 24.3804C324.434 24.8593 324.612 25.2492 324.846 25.5499C325.08 25.8507 325.336 26.0623 325.648 26.196C325.96 26.3296 326.283 26.3965 326.617 26.3965Z" fill="white" />
  <path d="M336.807 27.9892C336.15 27.9892 335.571 27.9112 335.059 27.7441C334.546 27.5882 334.112 27.3543 333.767 27.0647C333.41 26.7751 333.143 26.4186 332.931 26.0176C332.731 25.6055 332.619 25.16 332.586 24.6476H334.457C334.502 24.9149 334.58 25.1599 334.691 25.3827C334.803 25.6055 334.958 25.7949 335.159 25.9508C335.359 26.1067 335.593 26.2292 335.861 26.3072C336.128 26.3852 336.451 26.4297 336.807 26.4297C337.632 26.4297 338.222 26.2849 338.59 25.9953C338.957 25.7057 339.135 25.3047 339.135 24.7924C339.135 24.5473 339.091 24.3134 339.013 24.1018C338.935 23.8901 338.801 23.7231 338.612 23.5671C338.423 23.4112 338.178 23.2998 337.877 23.2107C337.576 23.1216 337.208 23.077 336.796 23.077H335.515V21.6958H336.796C337.476 21.6958 337.977 21.5399 338.289 21.2391C338.601 20.9384 338.757 20.5708 338.757 20.1364C338.757 19.702 338.601 19.3456 338.278 19.0671C337.966 18.7887 337.465 18.6438 336.796 18.6438C336.44 18.6438 336.139 18.6773 335.883 18.7552C335.627 18.8221 335.415 18.9223 335.237 19.056C335.07 19.1897 334.936 19.3456 334.847 19.5461C334.758 19.7466 334.691 19.9582 334.669 20.2033H332.798C332.831 19.7354 332.931 19.301 333.109 18.9112C333.288 18.5213 333.544 18.1983 333.867 17.931C334.19 17.6637 334.602 17.4632 335.092 17.3184C335.582 17.1736 336.15 17.0956 336.785 17.0956C338.066 17.0956 339.035 17.3629 339.67 17.8976C340.305 18.4322 340.628 19.1562 340.628 20.0696C340.628 20.6265 340.472 21.0943 340.171 21.4842C339.871 21.874 339.458 22.1525 338.946 22.3196C339.581 22.4755 340.082 22.754 340.45 23.1884C340.817 23.6117 341.007 24.1798 341.007 24.8703C341.007 25.327 340.918 25.7392 340.739 26.1179C340.561 26.4966 340.294 26.8307 339.937 27.1092C339.581 27.3877 339.147 27.5993 338.623 27.7552C338.1 27.9112 337.487 27.9892 336.796 27.9892H336.807Z" fill="white" />
  <path d="M119.641 45.9129V35.3535H123.483C124.185 35.3535 124.798 35.4315 125.321 35.5986C125.845 35.7545 126.279 35.9884 126.613 36.2892C126.959 36.5899 127.204 36.9352 127.371 37.3473C127.538 37.7595 127.616 38.2161 127.616 38.7174C127.616 39.2186 127.538 39.6753 127.371 40.0874C127.204 40.4996 126.948 40.856 126.613 41.1456C126.268 41.4352 125.834 41.6691 125.321 41.8362C124.798 41.9921 124.185 42.0812 123.483 42.0812H121.49V45.9129H119.641ZM121.49 40.5107H123.328C124.23 40.5107 124.865 40.3548 125.232 40.0317C125.6 39.7087 125.778 39.2743 125.778 38.7062C125.778 38.1382 125.6 37.7038 125.232 37.3919C124.865 37.08 124.241 36.9129 123.328 36.9129H121.49V40.4996V40.5107Z" fill="white" />
  <path d="M133.905 46.0791C133.27 46.0791 132.669 45.9789 132.078 45.7672C131.499 45.5667 130.987 45.2437 130.541 44.8093C130.096 44.3749 129.739 43.8291 129.483 43.1497C129.227 42.4702 129.082 41.6571 129.082 40.7103V40.4096C129.082 39.4962 129.216 38.7165 129.483 38.0593C129.75 37.4021 130.107 36.8675 130.541 36.4331C130.987 36.0098 131.499 35.6868 132.078 35.4863C132.658 35.2858 133.27 35.1855 133.905 35.1855C134.54 35.1855 135.141 35.2858 135.732 35.4863C136.311 35.6868 136.823 35.9987 137.269 36.4331C137.714 36.8563 138.071 37.4021 138.327 38.0593C138.583 38.7165 138.728 39.4962 138.728 40.4096V40.7103C138.728 41.6682 138.594 42.4813 138.327 43.1497C138.06 43.818 137.703 44.3749 137.269 44.8093C136.823 45.2437 136.311 45.5667 135.732 45.7672C135.153 45.9677 134.54 46.0791 133.905 46.0791ZM133.905 44.4863C134.273 44.4863 134.64 44.4195 134.986 44.2858C135.342 44.1521 135.643 43.9405 135.91 43.6398C136.177 43.339 136.378 42.9492 136.545 42.4702C136.701 41.9913 136.79 41.4009 136.79 40.7103V40.4096C136.79 39.7524 136.712 39.1843 136.545 38.7276C136.389 38.271 136.177 37.8922 135.91 37.6138C135.654 37.3242 135.342 37.1237 134.986 36.99C134.629 36.8563 134.273 36.7895 133.905 36.7895C133.537 36.7895 133.17 36.8563 132.825 36.99C132.468 37.1237 132.167 37.3242 131.9 37.6138C131.633 37.9034 131.432 38.271 131.265 38.7276C131.109 39.1843 131.02 39.7412 131.02 40.4096V40.7103C131.02 41.4009 131.098 41.9913 131.265 42.4702C131.421 42.9492 131.633 43.339 131.9 43.6398C132.167 43.9405 132.468 44.1521 132.825 44.2858C133.181 44.4195 133.537 44.4863 133.905 44.4863Z" fill="white" />
  <path d="M144.98 46.0791C144.345 46.0791 143.754 45.9789 143.198 45.7784C142.641 45.5779 142.151 45.2548 141.738 44.8204C141.326 44.386 140.992 43.8291 140.747 43.1496C140.502 42.4702 140.391 41.6571 140.391 40.7103V40.4096C140.391 39.4962 140.513 38.7165 140.758 38.0593C141.003 37.4021 141.337 36.8675 141.761 36.4442C142.184 36.0209 142.674 35.7091 143.231 35.4974C143.788 35.2969 144.378 35.1855 144.991 35.1855C145.604 35.1855 146.116 35.2635 146.606 35.4083C147.107 35.5531 147.542 35.7759 147.92 36.0655C148.299 36.3551 148.6 36.7227 148.845 37.1571C149.079 37.5915 149.224 38.0927 149.29 38.6831H147.341C147.219 38.0259 146.951 37.5469 146.539 37.2462C146.127 36.9455 145.615 36.7895 144.991 36.7895C144.634 36.7895 144.3 36.8563 143.988 36.99C143.677 37.1237 143.387 37.3242 143.142 37.6026C142.897 37.8811 142.696 38.2598 142.552 38.7165C142.407 39.1843 142.329 39.7412 142.329 40.4096V40.7103C142.329 41.412 142.407 42.0024 142.563 42.4813C142.719 42.9603 142.919 43.3501 143.175 43.6398C143.42 43.9405 143.71 44.1521 144.033 44.2858C144.356 44.4195 144.668 44.4863 144.98 44.4863C145.67 44.4863 146.216 44.3192 146.617 43.985C147.018 43.6509 147.252 43.1942 147.33 42.6039H149.279C149.212 43.2276 149.056 43.7623 148.811 44.1967C148.566 44.6311 148.254 44.9875 147.876 45.2771C147.497 45.5556 147.052 45.7672 146.561 45.8898C146.071 46.0234 145.537 46.0903 144.98 46.0903V46.0791Z" fill="white" />
  <path d="M155.378 46.0794C154.743 46.0794 154.153 45.9791 153.596 45.7786C153.039 45.5781 152.549 45.2551 152.137 44.8207C151.725 44.3863 151.391 43.8293 151.146 43.1499C150.9 42.4704 150.789 41.6573 150.789 40.7106V40.4098C150.789 39.4964 150.912 38.7167 151.157 38.0596C151.402 37.4024 151.736 36.8677 152.159 36.4445C152.582 36.0212 153.072 35.7093 153.629 35.4977C154.186 35.2972 154.777 35.1858 155.389 35.1858C156.002 35.1858 156.514 35.2638 157.004 35.4086C157.506 35.5534 157.94 35.7761 158.319 36.0658C158.697 36.3554 158.998 36.7229 159.243 37.1573C159.477 37.5917 159.622 38.093 159.689 38.6833H157.74C157.617 38.0261 157.35 37.5472 156.938 37.2464C156.525 36.9457 156.013 36.7898 155.389 36.7898C155.033 36.7898 154.699 36.8566 154.387 36.9902C154.075 37.1239 153.785 37.3244 153.54 37.6029C153.295 37.8813 153.095 38.26 152.95 38.7167C152.805 39.1846 152.727 39.7415 152.727 40.4098V40.7106C152.727 41.4123 152.805 42.0026 152.961 42.4816C153.117 42.9605 153.318 43.3504 153.574 43.64C153.819 43.9407 154.108 44.1524 154.431 44.286C154.754 44.4197 155.066 44.4865 155.378 44.4865C156.069 44.4865 156.615 44.3194 157.016 43.9853C157.417 43.6511 157.65 43.1945 157.728 42.6041H159.678C159.611 43.2279 159.455 43.7625 159.21 44.1969C158.965 44.6313 158.653 44.9878 158.274 45.2774C157.895 45.5558 157.45 45.7675 156.96 45.89C156.47 46.0237 155.935 46.0905 155.378 46.0905V46.0794Z" fill="white" />
  <path d="M161.719 45.9129V35.3535H163.568V42.9946L168.68 35.3535H170.463V45.9129H168.614V38.2718L163.501 45.9129H161.719Z" fill="white" />
  <path d="M173.18 45.9129V35.3535H175.029V42.9946L180.141 35.3535H181.923V45.9129H180.074V38.2718L174.962 45.9129H173.18Z" fill="white" />
  <path d="M56.7981 22.5562C55.0048 20.7406 52.5097 19.6156 49.7473 19.6156C46.985 19.6156 44.5122 20.7517 42.7077 22.5785C40.9033 24.3941 39.7783 26.9114 39.7783 29.6849C39.7783 32.4584 40.9033 34.9089 42.7189 36.7245C44.5345 38.5401 47.0184 39.6651 49.7473 39.6651C52.4763 39.6651 54.9936 38.5401 56.7869 36.7468C58.6025 34.9312 59.7164 32.425 59.7164 29.6849C59.7164 26.9448 58.6025 24.3829 56.7981 22.5562ZM49.7473 18.9584C52.6991 18.9584 55.3501 20.1614 57.2659 22.0884C59.1929 24.0376 60.3736 26.722 60.3736 29.6849C60.3736 32.6478 59.1817 35.2765 57.2548 37.2146C55.3389 39.1304 52.6879 40.3223 49.7473 40.3223C46.8067 40.3223 44.178 39.1193 42.251 37.1812C40.3241 35.2542 39.1211 32.5921 39.1211 29.6849C39.1211 26.7777 40.3241 24.0599 42.2399 22.1106C44.1669 20.1614 46.8402 18.9473 49.7473 18.9473V18.9584Z" fill="#D5B26A" />
  <path fill-rule="evenodd" clip-rule="evenodd" d="M49.7241 19.2694C43.7316 20.2385 44.0434 27.2558 49.635 29.4055C57.0199 30.564 56.6301 38.3498 49.635 39.8981C35.9568 38.6951 36.2687 19.2694 49.7241 19.2694Z" fill="#D5B26A" />
  <path d="M46.0272 20.8967C46.339 20.5069 46.7178 20.1616 47.1744 19.872C44.1447 20.5292 42.0507 22.367 40.9034 24.6616C40.2574 25.9648 39.9009 27.4128 39.8564 28.872C39.8118 30.3423 40.0569 31.8349 40.6138 33.216C41.917 36.4685 44.9133 39.1306 49.6361 39.5539C51.8081 39.0527 53.3007 37.9388 54.0915 36.6245C54.5259 35.9005 54.7376 35.1096 54.7264 34.3411C54.7153 33.5725 54.4814 32.815 54.0135 32.1356C53.2227 30.9883 51.7747 30.0638 49.6361 29.7297C49.6027 29.7297 49.5692 29.7297 49.547 29.7074C47.6757 28.9945 46.3725 27.747 45.6596 26.3547C45.1918 25.4413 44.9801 24.4611 45.047 23.5143C45.1027 22.5675 45.4368 21.6542 46.0494 20.8856M49.7809 19.5935C48.2994 19.8386 47.2301 20.4735 46.5618 21.2977C46.0383 21.9549 45.7487 22.7346 45.7041 23.5477C45.6484 24.372 45.8378 25.2408 46.2499 26.0428C46.8848 27.2903 48.0655 28.4153 49.7586 29.0613C52.0977 29.4401 53.6905 30.4648 54.5705 31.7458C55.1051 32.5366 55.3836 33.4165 55.3947 34.3188C55.4059 35.2099 55.1608 36.1232 54.6707 36.9475C53.8019 38.4178 52.1423 39.6653 49.7363 40.2C49.7029 40.2 49.6695 40.2 49.6361 40.2C44.6014 39.7655 41.4158 36.9141 40.0123 33.4388C39.422 31.9685 39.1546 30.3868 39.2103 28.8274C39.266 27.268 39.6336 25.7198 40.3353 24.3386C41.8947 21.2309 45.047 18.9141 49.7586 18.9141C49.9368 18.9141 50.0928 19.0589 50.0928 19.2482C50.0928 19.4264 49.9591 19.5601 49.792 19.5824L49.7809 19.5935Z" fill="#D5B26A" />
  <path fill-rule="evenodd" clip-rule="evenodd" d="M98.0372 41.614C91.2538 53.7774 72.5409 62.5323 50.7092 62.5323C28.8776 62.5323 8.82805 53.2316 2.60156 40.4779L2.70181 40.5001C2.74636 40.6004 2.80206 40.7118 2.85775 40.8231L3.31443 40.734C17.0483 47.4618 33.1548 46.5595 50.0298 41.8368C68.1078 35.6103 83.9469 35.6103 97.7476 41.7365L98.0372 41.614Z" fill="#D5B26A" />
  <path d="M4.41406 19.4466C17.0453 24.7932 33.898 24.1471 50.0378 19.0011C68.1158 12.8749 83.5651 13.9442 97.1765 20.0704" stroke="#D5B26A" stroke-width="0.88" stroke-miterlimit="10" />
  <path d="M85.823 9.95792C76.8119 4.36634 64.3812 0.891093 50.7141 0.891093C37.047 0.891093 24.4827 4.35519 15.4493 9.94677C6.47154 15.5049 0.913366 23.146 0.913366 31.5445C0.913366 39.9431 6.47153 47.5396 15.427 53.0755C24.4604 58.6448 36.9356 62.0978 50.7141 62.0978C64.4926 62.0978 76.8453 58.6448 85.8453 53.0644C94.7673 47.5396 100.314 39.9319 100.314 31.5445C100.314 23.1572 94.7562 15.5161 85.823 9.96906M50.7141 0C64.5594 0 77.1572 3.53095 86.302 9.21164C95.5025 14.9257 101.217 22.8342 101.217 31.5557C101.217 40.2772 95.5136 48.1411 86.3131 53.8329C77.1683 59.4913 64.5594 63 50.703 63C36.8465 63 24.1151 59.5025 14.948 53.8441C5.71411 48.1522 0 40.2661 0 31.5557C0 22.8453 5.72525 14.9146 14.9703 9.20049C24.1374 3.53093 36.7797 0.0111325 50.703 0.0111325L50.7141 0Z" fill="#D5B26A" />
  <path fill-rule="evenodd" clip-rule="evenodd" d="M49.1018 6.26052C48.9347 5.33602 47.999 4.40037 48.8344 3.38676C49.124 2.89666 49.2243 2.2172 48.8344 1.4375L49.4136 1.82736C51.3406 2.98577 51.7416 4.43379 49.9372 6.26052H49.1018Z" fill="#D5B26A" />
  <path d="M51.5864 16.1288H48.1L51.954 18.312L51.5864 16.1288ZM51.0629 13.0657H48.4453L51.3748 14.8479L51.074 13.0657H51.0629ZM48.1334 12.3974H50.7064L48.423 10.7377L48.1334 12.3974ZM50.5616 10.1808H48.7683L50.8178 11.6733L50.5616 10.1808ZM50.1272 7.64117H48.9577L48.6347 9.51245H50.4503L50.1272 7.64117ZM47.298 6.22656H51.5975V7.64117H50.7956L52.5889 18.156C52.1099 18.3008 51.631 18.4568 51.152 18.6127L47.4094 16.4964L46.8525 19.682L46.1953 19.5706L48.2782 7.6523H47.2646V6.23769H47.298V6.22656ZM47.5876 15.4605H51.0963L47.9218 13.5224L47.5876 15.4605Z" fill="#D5B26A" />
  <path fill-rule="evenodd" clip-rule="evenodd" d="M31.1784 29.8413C32.1475 29.73 33.1165 29.6074 34.0967 29.4738V32.5035C34.0967 33.5394 34.0967 34.5753 33.9965 35.6223V41.7597C34.6759 41.7151 35.3554 41.6706 36.1351 41.5258V37.6607C36.1351 36.3463 36.2353 35.1099 36.2353 33.7956V29.9416C36.2353 28.6272 36.3356 27.3909 36.3356 26.0765C33.9074 26.5555 31.468 26.8005 29.14 27.001C29.0398 28.3376 29.0398 29.574 29.0398 30.8104V34.6198C28.9396 35.9564 28.9396 37.1928 28.9396 38.4292V42.2498C29.619 42.2275 30.2985 42.2052 31.0782 42.0827V39.0418C31.0782 37.9948 31.0782 36.9478 31.1784 35.9119V29.8413ZM26.0212 37.0257C25.8319 39.2312 25.2415 39.8995 24.3727 39.8884C23.9829 39.8884 23.4928 39.777 23.1029 39.0975C22.7131 38.4181 22.4235 37.1483 22.4235 34.8426C22.4235 32.5369 22.8133 31.1 23.2032 30.4317C23.593 29.7745 24.0831 29.6854 24.3727 29.6965C25.2415 29.6297 25.8319 30.1198 26.0212 32.3253C26.7007 32.3253 27.3801 32.2473 28.0596 32.2473C28.0596 31.579 28.0596 30.1421 27.5695 28.9948C26.9903 27.7473 26.1103 26.678 24.2613 26.7114C22.6128 26.6446 21.5435 27.6582 20.9532 29.2733C20.6636 30.0307 20.4742 30.9886 20.2737 31.9465C20.1735 32.9045 20.0844 33.8735 20.0844 34.8426C20.0844 36.2906 20.1735 37.4602 20.374 38.5295C20.5633 39.4985 20.8641 40.3785 21.1537 40.9688C21.9334 42.3389 22.9024 42.8401 24.1722 42.8512C25.4309 42.8512 26.3108 42.3723 26.9903 41.3141C27.6698 40.3451 27.9594 38.8191 28.1598 36.9032C27.4804 36.9032 26.7007 37.0035 26.0212 37.0035V37.0257ZM16.3975 29.4069C17.567 29.574 18.8257 29.7522 19.9952 29.8191V26.9119C18.046 26.6 16.1079 26.3772 14.2589 26.0542V29.8525C14.1586 31.1112 14.1586 32.4812 14.1586 33.7399V41.4366C14.9383 41.5926 15.6178 41.7262 16.2972 41.8599V38.7522C16.3975 37.6829 16.3975 36.7139 16.3975 35.6446V29.4181V29.4069ZM7.74277 32.9156C8.62272 33.1941 9.59178 33.5617 10.4606 33.8401V40.4787C11.2403 40.6458 11.9197 40.8908 12.5992 41.0357V29.5295C12.5992 28.2597 12.6995 27.001 12.6995 25.6421C11.9198 25.475 11.2403 25.3302 10.4606 25.1631V30.9218C9.58064 30.5542 8.61158 30.2757 7.64252 29.9973C7.64252 29.0171 7.74277 28.0592 7.64252 27.1681C7.64252 26.1879 7.74277 25.23 7.64252 24.3389C6.96307 24.0827 6.28361 23.8376 5.50391 23.5703V38.3512C6.28361 38.7188 6.96307 39.0864 7.64252 39.3426C7.74277 38.2844 7.64252 37.204 7.64252 36.1347C7.74277 35.0654 7.64252 33.996 7.74277 32.9267V32.9156Z" fill="#D5B26A" />
  <path fill-rule="evenodd" clip-rule="evenodd" d="M62.6172 34.9216C63.1741 34.8325 63.8313 34.7434 64.3882 34.6431V31.7916C64.3882 30.778 64.3882 29.8647 64.2991 28.8399C64.6667 28.8399 65.0454 28.7508 65.413 28.7508C65.413 27.804 65.413 26.8461 65.413 25.8882C65.0454 25.8882 64.6667 25.8882 64.2991 25.9773V22.0119C64.6667 21.9228 65.0454 21.934 65.413 21.8337V18.7929C64.4773 18.882 63.5528 18.96 62.6283 19.0491V34.8993M72.0293 18.1914V21.21H71.9291C71.4612 21.1988 71.0937 21.4662 70.9043 22.1902C70.6259 23.0144 70.5256 24.2954 70.5367 26.4006C70.6259 28.6951 70.8152 29.976 71.0937 30.6221C71.3721 31.2681 71.7508 31.4575 72.0293 31.4575V34.4761C70.6258 34.3758 69.7905 33.0058 69.3338 31.3461C69.0999 30.4773 68.9551 29.5305 68.8771 28.6617C68.7991 27.7929 68.7768 26.9798 68.7768 26.3894C68.7768 25.8436 68.7768 25.0305 68.8214 24.1506C68.8659 23.2706 68.9551 22.3015 69.1444 21.4327C69.6122 19.7062 70.3585 18.158 71.84 18.2025C71.9291 18.2025 72.0293 18.2025 72.0293 18.2025V18.1914ZM65.4241 28.7397C65.7026 28.7397 66.3598 28.5614 66.4489 30.3993C66.538 32.5157 66.4489 33.2508 66.7273 34.3535C67.3734 34.2644 67.9414 34.2644 68.4984 34.1753C68.0306 32.6159 68.0306 30.8671 68.0306 29.5862C68.0306 28.205 67.9414 27.2805 67.0949 27.1914V27.002C67.9303 26.7347 68.2979 24.5293 68.2088 23.059C68.2088 22.0454 68.1197 20.9426 67.7409 20.1072C67.4625 19.283 66.9056 18.7149 65.9699 18.7929C65.7806 18.7929 65.5912 18.7929 65.413 18.7929V21.8337H65.5021C66.059 21.8337 66.5268 22.1233 66.5268 23.7718C66.5268 25.6097 65.9699 25.7879 65.5912 25.7879C65.5318 25.8473 65.4687 25.877 65.4018 25.877C65.4018 26.835 65.4018 27.7818 65.4018 28.7397H65.4241ZM72.0405 34.4649V31.4464C72.0999 31.4464 72.163 31.4464 72.2298 31.4464C72.5083 31.4464 72.8759 31.3572 73.1543 30.6332C73.4328 29.9092 73.6221 28.6283 73.6221 26.356C73.5219 24.3511 73.3437 23.0701 73.0652 22.2347C72.7867 21.5887 72.408 21.3102 72.0405 21.21V18.1914C73.4328 18.4142 74.2682 19.8065 74.736 21.5441C74.9699 22.4129 75.1036 23.3597 75.1815 24.2174C75.2595 25.0862 75.2929 25.877 75.2929 26.4674C75.3375 27.0132 75.3598 27.7929 75.3152 28.6394C75.2707 29.4859 75.1481 30.4216 74.9254 31.2904C74.5578 33.0169 73.8115 34.4649 72.2298 34.4649C72.2298 34.4649 72.1407 34.4649 72.0405 34.4649ZM81.9984 28.1382C81.9984 27.5033 81.9093 26.9575 81.9093 26.4228C80.9736 26.3115 80.0491 26.2112 79.1135 26.0998C79.2137 27.002 79.2137 27.9154 79.2137 28.8176C79.6815 28.8176 80.0602 28.9179 80.5169 28.929C80.5169 30.1877 80.3276 31.903 79.2137 31.8028C78.6568 31.7137 78.2892 31.3461 78.0108 30.5218C77.7323 29.7087 77.5429 28.4278 77.5429 26.6233C77.4427 24.3511 77.632 23.0924 77.9105 22.4686C78.189 21.7558 78.6568 21.6778 78.9353 21.6778C79.2137 21.6778 80.0491 21.8894 80.1382 24.2397C80.6952 24.2508 81.2521 24.351 81.8202 24.4624C81.6308 22.2124 81.2521 20.8535 80.6952 19.929C80.1382 19.1048 79.4922 18.8152 78.835 18.7929C77.5318 18.5701 76.6964 19.6283 76.2286 21.0652C75.9947 21.8337 75.861 22.7137 75.7942 23.6382C75.7273 24.5516 75.7273 25.5095 75.7719 26.4228C75.8164 28.283 75.9835 29.7199 76.2174 30.8337C76.4513 31.9476 76.7521 32.7384 77.0751 33.3399C77.7323 34.4315 78.5677 34.6988 79.1246 34.6988C79.8709 34.7991 80.5281 34.4426 80.8957 32.8164C80.8957 33.3622 80.8957 33.8968 80.9848 34.4426C81.2632 34.4426 81.6419 34.5318 82.0095 34.5318V28.1493L81.9984 28.1382ZM81.9984 19.5949V20.9426C81.9093 20.486 81.809 20.0404 81.809 19.5949C81.809 19.5949 81.8981 19.5949 81.9984 19.5949ZM90.3746 21.3102C90.3746 22.8251 90.4749 24.3399 90.4749 25.8436C90.4749 27.3473 90.5751 28.9513 90.5751 30.455C90.5751 32.059 90.7645 33.5627 91.132 34.8102C91.5108 35.9575 92.1568 36.7595 93.2707 37.0268C94.2954 37.2941 94.9526 36.8486 95.3202 35.8795C95.6989 34.9105 95.788 33.3956 95.788 31.8028V27.2805C95.788 25.7768 95.788 24.2731 95.788 22.7582C95.231 22.58 94.6741 22.4018 94.2063 22.3127C94.2063 23.7273 94.2063 25.1419 94.2063 26.5676C94.2063 27.9822 94.2954 29.3968 94.2954 30.8226C94.2954 33.6518 94.0169 34.3647 93.2707 34.1865C92.4353 34.0082 92.1568 33.1171 92.0565 30.1877C92.0565 28.7731 92.0565 27.3473 92.0565 25.9327C91.9674 24.5181 91.9563 23.0924 91.9563 21.6778C91.3882 21.5775 90.9315 21.3993 90.3635 21.2991L90.3746 21.3102ZM81.9984 20.9426C82.1432 21.9785 82.2768 23.0144 82.4216 24.0614C82.5664 25.0973 82.7001 26.1332 82.8449 27.1691C82.9786 28.4278 83.1456 29.7087 83.3239 30.9897C83.4909 32.2706 83.6803 33.5515 83.8697 34.7991C84.4266 34.8882 84.9835 34.9884 85.5516 35.0775C85.5961 34.1864 85.6407 33.3065 85.6964 32.4377C85.7521 31.5689 85.8301 30.7001 85.9192 29.809C85.9637 28.9179 86.0083 28.0491 86.064 27.1803C86.1085 26.3114 86.1531 25.4426 86.1976 24.5515C86.2867 25.4872 86.4093 26.4117 86.5206 27.3139C86.6432 28.2162 86.7546 29.1072 86.8437 29.9983C86.9328 30.8894 87.033 31.7805 87.1221 32.6716C87.2112 33.5627 87.3115 34.4538 87.4006 35.3449C87.9575 35.434 88.5145 35.6122 89.0714 35.7124C89.1605 34.5095 89.283 33.3065 89.3944 32.1147C89.5058 30.9117 89.6283 29.7199 89.7174 28.5169C89.8065 27.3139 89.9068 26.1221 90.007 24.9191C90.1073 23.7273 90.2298 22.5243 90.3635 21.3214C89.8065 21.1431 89.2496 21.0429 88.6815 20.9426C88.637 21.7892 88.5924 22.6357 88.5367 23.4822C88.4811 24.3288 88.4142 25.1753 88.314 26.0107C88.2694 26.8572 88.2249 27.7261 88.1803 28.5949C88.1357 29.4637 88.0912 30.3325 88.0466 31.1679C87.9575 30.2768 87.8573 29.3857 87.757 28.4946C87.6568 27.6035 87.5343 26.7124 87.4006 25.8213C87.3004 24.9303 87.2113 24.0392 87.111 23.137C87.0219 22.2459 86.9216 21.3436 86.8325 20.4525C86.3647 20.3523 85.8078 20.252 85.34 20.2409C85.2954 21.0874 85.2509 21.934 85.1952 22.7805C85.1395 23.627 85.0726 24.4736 84.9724 25.3201C84.9278 26.2112 84.8833 27.0912 84.8387 27.9488C84.7942 28.8065 84.7496 29.653 84.6939 30.4996C84.6048 29.6085 84.4823 28.7285 84.3709 27.8597C84.2595 26.9909 84.137 26.111 84.0479 25.2087C83.9588 24.3065 83.8585 23.4154 83.7583 22.5132C83.6692 21.6109 83.5689 20.7199 83.4798 19.8176C82.9229 19.7954 82.4551 19.6951 81.9872 19.5949V20.9426H81.9984ZM81.9984 34.5206V28.1382C81.9984 28.9402 81.9984 29.6642 82.0875 30.4773C82.0875 31.8251 82.0875 33.1728 82.1766 34.5206H81.9872H81.9984Z" fill="#D5B26A" />
</svg>